<svg width="198" height="60" viewBox="0 0 198 60" fill="none" xmlns="http://www.w3.org/2000/svg">
<rect width="198" height="60" rx="10" fill="#141414"/>
<path d="M63.9723 44H61.4411L66.0497 30.9091H68.9773L73.5923 44H71.0611L67.5646 33.5938H67.4624L63.9723 44ZM64.0554 38.8672H70.9588V40.772H64.0554V38.8672ZM75.2143 47.6818V34.1818H77.4899V35.8054H77.6241C77.7434 35.5668 77.9118 35.3132 78.1291 35.0447C78.3464 34.772 78.6404 34.5398 79.0112 34.348C79.3819 34.152 79.8549 34.054 80.4302 34.054C81.1887 34.054 81.8727 34.2479 82.4821 34.6357C83.0957 35.0192 83.5815 35.5881 83.9395 36.3423C84.3017 37.0923 84.4828 38.0128 84.4828 39.1037C84.4828 40.1818 84.3059 41.098 83.9522 41.8523C83.5985 42.6065 83.117 43.1818 82.5076 43.5781C81.8983 43.9744 81.2079 44.1726 80.4366 44.1726C79.8741 44.1726 79.4075 44.0788 79.0368 43.8913C78.666 43.7038 78.3677 43.478 78.1419 43.2138C77.9203 42.9453 77.7477 42.6918 77.6241 42.4531H77.5282V47.6818H75.2143ZM77.4835 39.0909C77.4835 39.7259 77.573 40.282 77.752 40.7592C77.9352 41.2365 78.1973 41.6094 78.5382 41.8778C78.8833 42.142 79.301 42.2741 79.791 42.2741C80.3024 42.2741 80.7306 42.1378 81.0758 41.8651C81.421 41.5881 81.6809 41.2109 81.8556 40.7337C82.0346 40.2521 82.1241 39.7045 82.1241 39.0909C82.1241 38.4815 82.0368 37.9403 81.862 37.4673C81.6873 36.9943 81.4274 36.6236 81.0822 36.3551C80.737 36.0866 80.3066 35.9524 79.791 35.9524C79.2967 35.9524 78.877 36.0824 78.5318 36.3423C78.1866 36.6023 77.9245 36.9666 77.7456 37.4354C77.5708 37.9041 77.4835 38.456 77.4835 39.0909ZM86.4643 47.6818V34.1818H88.7399V35.8054H88.8741C88.9934 35.5668 89.1618 35.3132 89.3791 35.0447C89.5964 34.772 89.8904 34.5398 90.2612 34.348C90.6319 34.152 91.1049 34.054 91.6802 34.054C92.4387 34.054 93.1227 34.2479 93.7321 34.6357C94.3457 35.0192 94.8315 35.5881 95.1895 36.3423C95.5517 37.0923 95.7328 38.0128 95.7328 39.1037C95.7328 40.1818 95.5559 41.098 95.2022 41.8523C94.8485 42.6065 94.367 43.1818 93.7576 43.5781C93.1483 43.9744 92.4579 44.1726 91.6866 44.1726C91.1241 44.1726 90.6575 44.0788 90.2868 43.8913C89.916 43.7038 89.6177 43.478 89.3919 43.2138C89.1703 42.9453 88.9977 42.6918 88.8741 42.4531H88.7782V47.6818H86.4643ZM88.7335 39.0909C88.7335 39.7259 88.823 40.282 89.002 40.7592C89.1852 41.2365 89.4473 41.6094 89.7882 41.8778C90.1333 42.142 90.551 42.2741 91.041 42.2741C91.5524 42.2741 91.9806 42.1378 92.3258 41.8651C92.671 41.5881 92.9309 41.2109 93.1056 40.7337C93.2846 40.2521 93.3741 39.7045 93.3741 39.0909C93.3741 38.4815 93.2868 37.9403 93.112 37.4673C92.9373 36.9943 92.6774 36.6236 92.3322 36.3551C91.987 36.0866 91.5566 35.9524 91.041 35.9524C90.5467 35.9524 90.127 36.0824 89.7818 36.3423C89.4366 36.6023 89.1745 36.9666 88.9956 37.4354C88.8208 37.9041 88.7335 38.456 88.7335 39.0909ZM109.396 34.5078C109.336 33.9496 109.085 33.5149 108.642 33.2038C108.203 32.8928 107.632 32.7372 106.928 32.7372C106.434 32.7372 106.01 32.8118 105.656 32.9609C105.303 33.1101 105.032 33.3125 104.845 33.5682C104.657 33.8239 104.561 34.1158 104.557 34.4439C104.557 34.7166 104.619 34.9531 104.742 35.1534C104.87 35.3537 105.043 35.5241 105.26 35.6648C105.477 35.8011 105.718 35.9162 105.982 36.0099C106.247 36.1037 106.513 36.1825 106.781 36.2464L108.009 36.5533C108.503 36.6683 108.978 36.8239 109.434 37.0199C109.894 37.2159 110.306 37.4631 110.668 37.7614C111.034 38.0597 111.324 38.4197 111.537 38.8416C111.75 39.2635 111.857 39.7578 111.857 40.3246C111.857 41.0916 111.661 41.767 111.269 42.3509C110.877 42.9304 110.31 43.3842 109.568 43.7124C108.831 44.0362 107.938 44.1982 106.89 44.1982C105.872 44.1982 104.987 44.0405 104.237 43.7251C103.492 43.4098 102.908 42.9496 102.486 42.3445C102.068 41.7393 101.843 41.0021 101.808 40.1328H104.142C104.176 40.5888 104.316 40.968 104.563 41.2706C104.811 41.5732 105.132 41.799 105.529 41.9482C105.929 42.0973 106.377 42.1719 106.871 42.1719C107.387 42.1719 107.838 42.0952 108.226 41.9418C108.618 41.7841 108.925 41.5668 109.146 41.2898C109.368 41.0085 109.481 40.6804 109.485 40.3054C109.481 39.9645 109.381 39.6832 109.185 39.4616C108.989 39.2358 108.714 39.0483 108.36 38.8991C108.011 38.7457 107.602 38.6094 107.133 38.4901L105.644 38.1065C104.566 37.8295 103.713 37.4098 103.087 36.8473C102.465 36.2805 102.154 35.5284 102.154 34.5909C102.154 33.8196 102.362 33.1442 102.78 32.5646C103.202 31.9851 103.775 31.5355 104.499 31.2159C105.224 30.892 106.044 30.7301 106.96 30.7301C107.889 30.7301 108.703 30.892 109.402 31.2159C110.105 31.5355 110.657 31.9808 111.058 32.5518C111.458 33.1186 111.665 33.7706 111.678 34.5078H109.396ZM118.771 34.1818V35.9716H113.127V34.1818H118.771ZM114.521 31.8295H116.835V41.0469C116.835 41.358 116.881 41.5966 116.975 41.7628C117.073 41.9247 117.201 42.0355 117.359 42.0952C117.516 42.1548 117.691 42.1847 117.883 42.1847C118.028 42.1847 118.16 42.174 118.279 42.1527C118.403 42.1314 118.496 42.1122 118.56 42.0952L118.95 43.9041C118.827 43.9467 118.65 43.9936 118.42 44.0447C118.194 44.0959 117.917 44.1257 117.589 44.1342C117.009 44.1513 116.487 44.0639 116.023 43.8722C115.558 43.6761 115.19 43.3736 114.917 42.9645C114.648 42.5554 114.516 42.044 114.521 41.4304V31.8295ZM124.884 44.1918C123.925 44.1918 123.094 43.9808 122.391 43.5589C121.688 43.1371 121.142 42.5469 120.754 41.7884C120.371 41.0298 120.179 40.1435 120.179 39.1293C120.179 38.1151 120.371 37.2266 120.754 36.4638C121.142 35.701 121.688 35.1087 122.391 34.6868C123.094 34.2649 123.925 34.054 124.884 34.054C125.843 34.054 126.673 34.2649 127.377 34.6868C128.08 35.1087 128.623 35.701 129.007 36.4638C129.394 37.2266 129.588 38.1151 129.588 39.1293C129.588 40.1435 129.394 41.0298 129.007 41.7884C128.623 42.5469 128.08 43.1371 127.377 43.5589C126.673 43.9808 125.843 44.1918 124.884 44.1918ZM124.896 42.3381C125.416 42.3381 125.851 42.1953 126.2 41.9098C126.55 41.62 126.81 41.2322 126.98 40.7464C127.155 40.2607 127.242 39.7195 127.242 39.1229C127.242 38.522 127.155 37.9787 126.98 37.4929C126.81 37.0028 126.55 36.6129 126.2 36.3232C125.851 36.0334 125.416 35.8885 124.896 35.8885C124.364 35.8885 123.921 36.0334 123.567 36.3232C123.218 36.6129 122.955 37.0028 122.781 37.4929C122.61 37.9787 122.525 38.522 122.525 39.1229C122.525 39.7195 122.61 40.2607 122.781 40.7464C122.955 41.2322 123.218 41.62 123.567 41.9098C123.921 42.1953 124.364 42.3381 124.896 42.3381ZM131.552 44V34.1818H133.796V35.8182H133.898C134.077 35.2514 134.384 34.8146 134.819 34.5078C135.257 34.1967 135.758 34.0412 136.321 34.0412C136.449 34.0412 136.591 34.0476 136.749 34.0604C136.911 34.0689 137.045 34.0838 137.152 34.1051V36.2337C137.054 36.1996 136.898 36.1697 136.685 36.1442C136.476 36.1143 136.274 36.0994 136.078 36.0994C135.656 36.0994 135.277 36.1911 134.94 36.3743C134.608 36.5533 134.346 36.8026 134.154 37.1222C133.962 37.4418 133.866 37.8104 133.866 38.228V44H131.552ZM142.631 44.1918C141.647 44.1918 140.797 43.9872 140.081 43.5781C139.369 43.1648 138.822 42.581 138.438 41.8267C138.055 41.0682 137.863 40.1754 137.863 39.1484C137.863 38.1385 138.055 37.2521 138.438 36.4893C138.826 35.7223 139.367 35.1257 140.062 34.6996C140.756 34.2692 141.572 34.054 142.51 34.054C143.115 34.054 143.686 34.152 144.223 34.348C144.764 34.5398 145.241 34.8381 145.655 35.2429C146.072 35.6477 146.4 36.1634 146.639 36.7898C146.878 37.4119 146.997 38.1534 146.997 39.0142V39.7237H138.949V38.1641H144.779C144.775 37.7209 144.679 37.3267 144.491 36.9815C144.304 36.6321 144.042 36.3572 143.705 36.157C143.373 35.9567 142.985 35.8565 142.542 35.8565C142.069 35.8565 141.653 35.9716 141.295 36.2017C140.937 36.4276 140.658 36.7259 140.458 37.0966C140.262 37.4631 140.162 37.8658 140.157 38.3047V39.6662C140.157 40.2372 140.262 40.7273 140.471 41.1364C140.68 41.5412 140.971 41.8523 141.346 42.0696C141.721 42.2827 142.16 42.3892 142.663 42.3892C143 42.3892 143.305 42.3423 143.577 42.2486C143.85 42.1506 144.086 42.0078 144.287 41.8203C144.487 41.6328 144.638 41.4006 144.741 41.1236L146.901 41.3665C146.765 41.9375 146.505 42.4361 146.121 42.8622C145.742 43.2841 145.256 43.6122 144.664 43.8466C144.072 44.0767 143.394 44.1918 142.631 44.1918Z" fill="white"/>
<path d="M64.125 24H61.8807V16.7273H64.2244C64.9299 16.7273 65.5336 16.8729 66.0355 17.1641C66.5374 17.4529 66.9221 17.8684 67.1896 18.4105C67.4571 18.9503 67.5909 19.5966 67.5909 20.3494C67.5909 21.107 67.456 21.7592 67.1861 22.3061C66.9162 22.8506 66.5232 23.2696 66.0071 23.5632C65.491 23.8544 64.8636 24 64.125 24ZM62.7614 23.2188H64.0682C64.6695 23.2188 65.1679 23.1027 65.5632 22.8707C65.9586 22.6387 66.2533 22.3085 66.4474 21.88C66.6416 21.4515 66.7386 20.9413 66.7386 20.3494C66.7386 19.7623 66.6428 19.2569 66.451 18.8331C66.2592 18.407 65.9728 18.0803 65.5916 17.853C65.2105 17.6233 64.7358 17.5085 64.1676 17.5085H62.7614V23.2188ZM71.1705 24.1136C70.678 24.1136 70.246 23.9964 69.8743 23.7621C69.505 23.5277 69.2161 23.1998 69.0078 22.7784C68.8018 22.357 68.6989 21.8646 68.6989 21.3011C68.6989 20.733 68.8018 20.237 69.0078 19.8132C69.2161 19.3894 69.505 19.0604 69.8743 18.826C70.246 18.5916 70.678 18.4744 71.1705 18.4744C71.6629 18.4744 72.0938 18.5916 72.4631 18.826C72.8348 19.0604 73.1236 19.3894 73.3295 19.8132C73.5379 20.237 73.642 20.733 73.642 21.3011C73.642 21.8646 73.5379 22.357 73.3295 22.7784C73.1236 23.1998 72.8348 23.5277 72.4631 23.7621C72.0938 23.9964 71.6629 24.1136 71.1705 24.1136ZM71.1705 23.3608C71.5445 23.3608 71.8523 23.2649 72.0938 23.0732C72.3352 22.8814 72.514 22.6293 72.63 22.3168C72.746 22.0043 72.804 21.6657 72.804 21.3011C72.804 20.9366 72.746 20.5968 72.63 20.282C72.514 19.9671 72.3352 19.7126 72.0938 19.5185C71.8523 19.3243 71.5445 19.2273 71.1705 19.2273C70.7964 19.2273 70.4886 19.3243 70.2472 19.5185C70.0057 19.7126 69.8269 19.9671 69.7109 20.282C69.5949 20.5968 69.5369 20.9366 69.5369 21.3011C69.5369 21.6657 69.5949 22.0043 69.7109 22.3168C69.8269 22.6293 70.0057 22.8814 70.2472 23.0732C70.4886 23.2649 70.7964 23.3608 71.1705 23.3608ZM75.9716 24L74.3097 18.5455H75.1903L76.3693 22.7216H76.4261L77.5909 18.5455H78.4858L79.6364 22.7074H79.6932L80.8722 18.5455H81.7528L80.0909 24H79.267L78.0739 19.8097H77.9886L76.7955 24H75.9716ZM83.6989 20.7188V24H82.8608V18.5455H83.6705V19.3977H83.7415C83.8693 19.1207 84.0634 18.8982 84.3239 18.7301C84.5843 18.5597 84.9205 18.4744 85.3324 18.4744C85.7017 18.4744 86.0249 18.5502 86.3018 18.7017C86.5788 18.8509 86.7943 19.0781 86.9482 19.3835C87.102 19.6866 87.179 20.0701 87.179 20.5341V24H86.3409V20.5909C86.3409 20.1624 86.2296 19.8286 86.0071 19.5895C85.7846 19.348 85.4792 19.2273 85.0909 19.2273C84.8234 19.2273 84.5843 19.2853 84.3736 19.4013C84.1652 19.5173 84.0007 19.6866 83.88 19.9091C83.7592 20.1316 83.6989 20.4015 83.6989 20.7188ZM89.5485 16.7273V24H88.7104V16.7273H89.5485ZM93.2994 24.1136C92.8069 24.1136 92.3749 23.9964 92.0032 23.7621C91.6339 23.5277 91.3451 23.1998 91.1367 22.7784C90.9308 22.357 90.8278 21.8646 90.8278 21.3011C90.8278 20.733 90.9308 20.237 91.1367 19.8132C91.3451 19.3894 91.6339 19.0604 92.0032 18.826C92.3749 18.5916 92.8069 18.4744 93.2994 18.4744C93.7918 18.4744 94.2227 18.5916 94.592 18.826C94.9637 19.0604 95.2525 19.3894 95.4585 19.8132C95.6668 20.237 95.771 20.733 95.771 21.3011C95.771 21.8646 95.6668 22.357 95.4585 22.7784C95.2525 23.1998 94.9637 23.5277 94.592 23.7621C94.2227 23.9964 93.7918 24.1136 93.2994 24.1136ZM93.2994 23.3608C93.6734 23.3608 93.9812 23.2649 94.2227 23.0732C94.4641 22.8814 94.6429 22.6293 94.7589 22.3168C94.8749 22.0043 94.9329 21.6657 94.9329 21.3011C94.9329 20.9366 94.8749 20.5968 94.7589 20.282C94.6429 19.9671 94.4641 19.7126 94.2227 19.5185C93.9812 19.3243 93.6734 19.2273 93.2994 19.2273C92.9253 19.2273 92.6175 19.3243 92.3761 19.5185C92.1346 19.7126 91.9558 19.9671 91.8398 20.282C91.7238 20.5968 91.6658 20.9366 91.6658 21.3011C91.6658 21.6657 91.7238 22.0043 91.8398 22.3168C91.9558 22.6293 92.1346 22.8814 92.3761 23.0732C92.6175 23.2649 92.9253 23.3608 93.2994 23.3608ZM98.6554 24.1278C98.3097 24.1278 97.996 24.0627 97.7143 23.9325C97.4326 23.8 97.2089 23.6094 97.0431 23.3608C96.8774 23.1098 96.7946 22.8068 96.7946 22.4517C96.7946 22.1392 96.8561 21.8859 96.9792 21.6918C97.1023 21.4953 97.2669 21.3414 97.4728 21.2301C97.6788 21.1188 97.9061 21.036 98.1547 20.9815C98.4056 20.9247 98.6577 20.8797 98.911 20.8466C99.2425 20.804 99.5112 20.772 99.7172 20.7507C99.9255 20.727 100.077 20.688 100.172 20.6335C100.269 20.5791 100.317 20.4844 100.317 20.3494V20.321C100.317 19.9706 100.221 19.6984 100.03 19.5043C99.8403 19.3101 99.5526 19.2131 99.1667 19.2131C98.7666 19.2131 98.4529 19.3007 98.2257 19.4759C97.9984 19.651 97.8386 19.8381 97.7463 20.0369L96.9508 19.7528C97.0929 19.4214 97.2823 19.1634 97.519 18.9787C97.7581 18.7917 98.0185 18.6615 98.3002 18.5881C98.5843 18.5123 98.8637 18.4744 99.1383 18.4744C99.3135 18.4744 99.5147 18.4957 99.742 18.5384C99.9717 18.5786 100.193 18.6626 100.406 18.7905C100.622 18.9183 100.8 19.1113 100.942 19.3693C101.084 19.6274 101.155 19.973 101.155 20.4062V24H100.317V23.2614H100.275C100.218 23.3797 100.123 23.5064 99.9906 23.6413C99.858 23.7763 99.6816 23.8911 99.4615 23.9858C99.2413 24.0805 98.9726 24.1278 98.6554 24.1278ZM98.7832 23.375C99.1146 23.375 99.394 23.3099 99.6213 23.1797C99.8509 23.0495 100.024 22.8814 100.14 22.6754C100.258 22.4695 100.317 22.2528 100.317 22.0256V21.2585C100.282 21.3011 100.204 21.3402 100.083 21.3757C99.9645 21.4089 99.8272 21.4384 99.671 21.4645C99.5171 21.4882 99.3668 21.5095 99.22 21.5284C99.0756 21.545 98.9584 21.5592 98.8684 21.571C98.6506 21.5994 98.447 21.6456 98.2576 21.7095C98.0706 21.7711 97.9191 21.8646 97.8031 21.9901C97.6895 22.1132 97.6326 22.2812 97.6326 22.4943C97.6326 22.7855 97.7404 23.0057 97.9558 23.1548C98.1736 23.3016 98.4494 23.375 98.7832 23.375ZM104.745 24.1136C104.29 24.1136 103.889 23.9988 103.541 23.7692C103.193 23.5372 102.921 23.2105 102.724 22.7891C102.528 22.3653 102.429 21.8646 102.429 21.2869C102.429 20.714 102.528 20.2169 102.724 19.7955C102.921 19.3741 103.194 19.0485 103.544 18.8189C103.895 18.5893 104.3 18.4744 104.759 18.4744C105.114 18.4744 105.395 18.5336 105.6 18.652C105.809 18.768 105.967 18.9006 106.076 19.0497C106.188 19.1965 106.274 19.3172 106.336 19.4119H106.407V16.7273H107.245V24H106.435V23.1619H106.336C106.274 23.2614 106.186 23.3868 106.073 23.5384C105.959 23.6875 105.797 23.8213 105.586 23.9396C105.376 24.0556 105.095 24.1136 104.745 24.1136ZM104.858 23.3608C105.194 23.3608 105.479 23.2732 105.711 23.098C105.943 22.9205 106.119 22.6754 106.24 22.3629C106.36 22.0481 106.421 21.6847 106.421 21.2727C106.421 20.8655 106.362 20.5092 106.243 20.2038C106.125 19.8961 105.95 19.657 105.718 19.4865C105.486 19.3137 105.199 19.2273 104.858 19.2273C104.503 19.2273 104.207 19.3184 103.971 19.5007C103.736 19.6806 103.56 19.9257 103.441 20.2358C103.325 20.5436 103.267 20.8892 103.267 21.2727C103.267 21.661 103.327 22.0137 103.445 22.331C103.566 22.6458 103.743 22.8968 103.978 23.0838C104.214 23.2685 104.508 23.3608 104.858 23.3608ZM113.924 24.1136C113.432 24.1136 113 23.9964 112.628 23.7621C112.259 23.5277 111.97 23.1998 111.762 22.7784C111.556 22.357 111.453 21.8646 111.453 21.3011C111.453 20.733 111.556 20.237 111.762 19.8132C111.97 19.3894 112.259 19.0604 112.628 18.826C113 18.5916 113.432 18.4744 113.924 18.4744C114.417 18.4744 114.848 18.5916 115.217 18.826C115.589 19.0604 115.877 19.3894 116.083 19.8132C116.292 20.237 116.396 20.733 116.396 21.3011C116.396 21.8646 116.292 22.357 116.083 22.7784C115.877 23.1998 115.589 23.5277 115.217 23.7621C114.848 23.9964 114.417 24.1136 113.924 24.1136ZM113.924 23.3608C114.298 23.3608 114.606 23.2649 114.848 23.0732C115.089 22.8814 115.268 22.6293 115.384 22.3168C115.5 22.0043 115.558 21.6657 115.558 21.3011C115.558 20.9366 115.5 20.5968 115.384 20.282C115.268 19.9671 115.089 19.7126 114.848 19.5185C114.606 19.3243 114.298 19.2273 113.924 19.2273C113.55 19.2273 113.243 19.3243 113.001 19.5185C112.76 19.7126 112.581 19.9671 112.465 20.282C112.349 20.5968 112.291 20.9366 112.291 21.3011C112.291 21.6657 112.349 22.0043 112.465 22.3168C112.581 22.6293 112.76 22.8814 113.001 23.0732C113.243 23.2649 113.55 23.3608 113.924 23.3608ZM118.513 20.7188V24H117.675V18.5455H118.485V19.3977H118.556C118.684 19.1207 118.878 18.8982 119.138 18.7301C119.399 18.5597 119.735 18.4744 120.147 18.4744C120.516 18.4744 120.839 18.5502 121.116 18.7017C121.393 18.8509 121.609 19.0781 121.763 19.3835C121.916 19.6866 121.993 20.0701 121.993 20.5341V24H121.155V20.5909C121.155 20.1624 121.044 19.8286 120.822 19.5895C120.599 19.348 120.294 19.2273 119.905 19.2273C119.638 19.2273 119.399 19.2853 119.188 19.4013C118.98 19.5173 118.815 19.6866 118.694 19.9091C118.574 20.1316 118.513 20.4015 118.513 20.7188ZM128.71 18.5455V19.2557H125.883V18.5455H128.71ZM126.707 17.2386H127.545V22.4375C127.545 22.6742 127.579 22.8518 127.648 22.9702C127.719 23.0862 127.809 23.1643 127.918 23.2045C128.029 23.2424 128.146 23.2614 128.269 23.2614C128.362 23.2614 128.437 23.2566 128.496 23.2472C128.556 23.2353 128.603 23.2259 128.638 23.2188L128.809 23.9716C128.752 23.9929 128.673 24.0142 128.571 24.0355C128.469 24.0592 128.34 24.071 128.184 24.071C127.947 24.071 127.715 24.0201 127.488 23.9183C127.263 23.8165 127.076 23.6615 126.927 23.4531C126.78 23.2448 126.707 22.982 126.707 22.6648V17.2386ZM130.925 20.7188V24H130.087V16.7273H130.925V19.3977H130.996C131.124 19.116 131.316 18.8923 131.572 18.7266C131.83 18.5585 132.173 18.4744 132.602 18.4744C132.973 18.4744 133.299 18.549 133.578 18.6982C133.857 18.8449 134.074 19.071 134.228 19.3764C134.384 19.6795 134.462 20.0653 134.462 20.5341V24H133.624V20.5909C133.624 20.1577 133.512 19.8227 133.287 19.5859C133.064 19.3468 132.755 19.2273 132.36 19.2273C132.085 19.2273 131.839 19.2853 131.621 19.4013C131.406 19.5173 131.236 19.6866 131.11 19.9091C130.987 20.1316 130.925 20.4015 130.925 20.7188ZM138.282 24.1136C137.757 24.1136 137.304 23.9976 136.922 23.7656C136.544 23.5312 136.251 23.2045 136.045 22.7855C135.842 22.3641 135.74 21.8741 135.74 21.3153C135.74 20.7566 135.842 20.2642 136.045 19.8381C136.251 19.4096 136.538 19.0758 136.905 18.8366C137.274 18.5952 137.705 18.4744 138.197 18.4744C138.481 18.4744 138.762 18.5218 139.039 18.6165C139.316 18.7112 139.568 18.8651 139.795 19.0781C140.023 19.2888 140.204 19.5682 140.339 19.9162C140.474 20.2642 140.541 20.6927 140.541 21.2017V21.5568H136.336V20.8324H139.689C139.689 20.5246 139.627 20.25 139.504 20.0085C139.383 19.767 139.211 19.5765 138.986 19.4368C138.763 19.2971 138.5 19.2273 138.197 19.2273C137.863 19.2273 137.575 19.3101 137.331 19.4759C137.089 19.6392 136.903 19.8523 136.773 20.1151C136.643 20.3778 136.578 20.6596 136.578 20.9602V21.4432C136.578 21.8551 136.649 22.2043 136.791 22.4908C136.935 22.7749 137.135 22.9915 137.391 23.1406C137.647 23.2874 137.944 23.3608 138.282 23.3608C138.503 23.3608 138.702 23.33 138.879 23.2685C139.059 23.2045 139.214 23.1098 139.344 22.9844C139.474 22.8565 139.575 22.6979 139.646 22.5085L140.456 22.7358C140.371 23.0104 140.227 23.2519 140.026 23.4602C139.825 23.6662 139.576 23.8272 139.28 23.9432C138.984 24.0568 138.652 24.1136 138.282 24.1136Z" fill="white"/>
<path d="M43.497 37.6404C43.0661 38.7451 42.5561 39.7619 41.9651 40.6968C41.1596 41.9713 40.5001 42.8534 39.9918 43.3433C39.2039 44.1474 38.3597 44.5592 37.4557 44.5826C36.8067 44.5826 36.024 44.3777 35.113 43.962C34.199 43.5482 33.359 43.3433 32.5909 43.3433C31.7854 43.3433 30.9215 43.5482 29.9975 43.962C29.072 44.3777 28.3265 44.5943 27.7565 44.6158C26.8896 44.6568 26.0255 44.2333 25.163 43.3433C24.6125 42.8105 23.924 41.8971 23.0991 40.6031C22.2141 39.2213 21.4865 37.619 20.9165 35.7922C20.306 33.819 20 31.9083 20 30.0585C20 27.9395 20.4126 26.1119 21.239 24.5804C21.8886 23.3503 22.7526 22.3799 23.8341 21.6675C24.9156 20.9551 26.0841 20.5921 27.3425 20.5689C28.031 20.5689 28.934 20.8053 30.056 21.2698C31.175 21.7358 31.8934 21.9722 32.2084 21.9722C32.4439 21.9722 33.242 21.6958 34.595 21.1448C35.8745 20.6339 36.9544 20.4223 37.8391 20.5057C40.2363 20.7204 42.0372 21.769 43.2349 23.6582C41.091 25.0998 40.0305 27.1188 40.0516 29.7089C40.0709 31.7264 40.7305 33.4052 42.0267 34.7383C42.6141 35.3569 43.2701 35.8351 44 36.1747C43.8417 36.6841 43.6746 37.172 43.497 37.6404ZM37.9991 13.6326C37.9991 15.2138 37.4785 16.6903 36.4409 18.0569C35.1886 19.6815 33.674 20.6202 32.0315 20.4721C32.0106 20.2824 31.9984 20.0827 31.9984 19.8729C31.9984 18.3549 32.5939 16.7303 33.6515 15.402C34.1795 14.7294 34.8509 14.1702 35.6653 13.7241C36.4778 13.2846 37.2464 13.0416 37.9692 13C37.9903 13.2114 37.9991 13.4228 37.9991 13.6325V13.6326Z" fill="white"/>
</svg>
