<svg width="170" height="170" viewBox="0 0 170 170" fill="none" xmlns="http://www.w3.org/2000/svg">
<path d="M0.000274658 79.8579C-0.0320587 92.258 2.8651 104.491 8.45578 115.559C15.0846 128.822 25.2752 139.978 37.8861 147.777C50.4971 155.576 65.0303 159.71 79.8579 159.715C92.258 159.748 104.491 156.851 115.559 151.26L169.11 169.11L151.26 115.559C156.851 104.491 159.748 92.258 159.715 79.8579C159.71 65.0303 155.576 50.4971 147.777 37.8861C139.978 25.2752 128.822 15.0846 115.559 8.45578C104.491 2.8651 92.258 -0.032063 79.8579 0.000267646H75.1604C55.5779 1.08062 37.082 9.34606 23.214 23.214C9.34607 37.082 1.08063 55.5779 0.000274658 75.1604V79.8579Z" fill="#F97936"/>
<path d="M36.1781 68.32V63.352L47.5541 47.08H54.4301V62.992H57.3821V68.32H54.4301V73H48.2741V68.32H36.1781ZM48.7061 53.848L42.6581 62.992H48.7061V53.848ZM60.3973 59.5C60.3973 55.372 61.1893 52.12 62.7733 49.744C64.3813 47.368 66.9613 46.18 70.5133 46.18C74.0653 46.18 76.6333 47.368 78.2173 49.744C79.8253 52.12 80.6293 55.372 80.6293 59.5C80.6293 63.676 79.8253 66.952 78.2173 69.328C76.6333 71.704 74.0653 72.892 70.5133 72.892C66.9613 72.892 64.3813 71.704 62.7733 69.328C61.1893 66.952 60.3973 63.676 60.3973 59.5ZM74.5813 59.5C74.5813 57.076 74.3173 55.216 73.7893 53.92C73.2613 52.6 72.1693 51.94 70.5133 51.94C68.8573 51.94 67.7653 52.6 67.2373 53.92C66.7093 55.216 66.4453 57.076 66.4453 59.5C66.4453 61.132 66.5413 62.488 66.7333 63.568C66.9253 64.624 67.3093 65.488 67.8853 66.16C68.4853 66.808 69.3613 67.132 70.5133 67.132C71.6653 67.132 72.5293 66.808 73.1053 66.16C73.7053 65.488 74.1013 64.624 74.2933 63.568C74.4853 62.488 74.5813 61.132 74.5813 59.5ZM83.3777 53.344C83.3777 51.4 83.9297 49.9 85.0337 48.844C86.1617 47.788 87.6137 47.26 89.3897 47.26C91.1657 47.26 92.6057 47.788 93.7097 48.844C94.8137 49.9 95.3657 51.4 95.3657 53.344C95.3657 55.288 94.8137 56.788 93.7097 57.844C92.6057 58.9 91.1657 59.428 89.3897 59.428C87.6137 59.428 86.1617 58.9 85.0337 57.844C83.9297 56.788 83.3777 55.288 83.3777 53.344ZM107.822 47.656L93.9617 73H88.0217L101.882 47.656H107.822ZM89.3537 50.86C88.2017 50.86 87.6257 51.688 87.6257 53.344C87.6257 54.976 88.2017 55.792 89.3537 55.792C89.9057 55.792 90.3377 55.588 90.6497 55.18C90.9617 54.772 91.1177 54.16 91.1177 53.344C91.1177 51.688 90.5297 50.86 89.3537 50.86ZM100.514 67.312C100.514 65.368 101.066 63.868 102.17 62.812C103.274 61.756 104.714 61.228 106.49 61.228C108.266 61.228 109.706 61.756 110.81 62.812C111.914 63.868 112.466 65.368 112.466 67.312C112.466 69.256 111.914 70.756 110.81 71.812C109.706 72.868 108.266 73.396 106.49 73.396C104.714 73.396 103.274 72.868 102.17 71.812C101.066 70.756 100.514 69.256 100.514 67.312ZM106.454 64.828C105.902 64.828 105.47 65.032 105.158 65.44C104.87 65.848 104.726 66.472 104.726 67.312C104.726 68.944 105.302 69.76 106.454 69.76C107.006 69.76 107.438 69.556 107.75 69.148C108.062 68.74 108.218 68.128 108.218 67.312C108.218 66.496 108.062 65.884 107.75 65.476C107.438 65.044 107.006 64.828 106.454 64.828ZM61.8724 127.324C60.0004 127.324 58.3084 126.904 56.7964 126.064C55.2844 125.2 54.0964 124 53.2324 122.464C52.3684 120.904 51.9364 119.104 51.9364 117.064C51.9364 115.048 52.3804 113.26 53.2684 111.7C54.1564 110.14 55.3684 108.94 56.9044 108.1C58.4404 107.26 60.1564 106.84 62.0524 106.84C63.9484 106.84 65.6644 107.26 67.2004 108.1C68.7364 108.94 69.9484 110.14 70.8364 111.7C71.7244 113.26 72.1684 115.048 72.1684 117.064C72.1684 119.08 71.7124 120.868 70.8004 122.428C69.8884 123.988 68.6404 125.2 67.0564 126.064C65.4964 126.904 63.7684 127.324 61.8724 127.324ZM61.8724 123.76C62.9284 123.76 63.9124 123.508 64.8244 123.004C65.7604 122.5 66.5164 121.744 67.0924 120.736C67.6684 119.728 67.9564 118.504 67.9564 117.064C67.9564 115.624 67.6804 114.412 67.1284 113.428C66.5764 112.42 65.8444 111.664 64.9324 111.16C64.0204 110.656 63.0364 110.404 61.9804 110.404C60.9244 110.404 59.9404 110.656 59.0284 111.16C58.1404 111.664 57.4324 112.42 56.9044 113.428C56.3764 114.412 56.1124 115.624 56.1124 117.064C56.1124 119.2 56.6524 120.856 57.7324 122.032C58.8364 123.184 60.2164 123.76 61.8724 123.76ZM84.5414 110.512H80.8694V127H76.7294V110.512H74.3894V107.164H76.7294V105.76C76.7294 103.48 77.3294 101.824 78.5294 100.792C79.7534 99.736 81.6614 99.208 84.2534 99.208V102.628C83.0054 102.628 82.1294 102.868 81.6254 103.348C81.1214 103.804 80.8694 104.608 80.8694 105.76V107.164H84.5414V110.512ZM96.4945 110.512H92.8225V127H88.6825V110.512H86.3425V107.164H88.6825V105.76C88.6825 103.48 89.2825 101.824 90.4825 100.792C91.7065 99.736 93.6145 99.208 96.2065 99.208V102.628C94.9585 102.628 94.0825 102.868 93.5785 103.348C93.0745 103.804 92.8225 104.608 92.8225 105.76V107.164H96.4945V110.512Z" fill="white"/>
</svg>
