<svg width="198" height="60" viewBox="0 0 198 60" fill="none" xmlns="http://www.w3.org/2000/svg">
<rect width="198" height="60" rx="10" fill="#141414"/>
<path d="M71.0611 35.0895C70.9545 34.7443 70.8075 34.4354 70.62 34.1626C70.4368 33.8857 70.2152 33.6491 69.9553 33.4531C69.6996 33.2571 69.4055 33.1101 69.0732 33.0121C68.7408 32.9098 68.3786 32.8587 67.9865 32.8587C67.2834 32.8587 66.657 33.0355 66.1072 33.3892C65.5575 33.7429 65.125 34.2628 64.8097 34.9489C64.4986 35.6307 64.343 36.4616 64.343 37.4418C64.343 38.4304 64.4986 39.2678 64.8097 39.9538C65.1207 40.6399 65.5533 41.1619 66.1072 41.5199C66.6612 41.8736 67.3047 42.0504 68.0376 42.0504C68.7024 42.0504 69.2777 41.9226 69.7635 41.6669C70.2536 41.4112 70.6307 41.049 70.8949 40.5803C71.1591 40.1072 71.2912 39.5533 71.2912 38.9183L71.8281 39.0014H68.2741V37.1477H73.5859V38.7202C73.5859 39.8409 73.3473 40.8104 72.87 41.6286C72.3928 42.4467 71.7365 43.0774 70.9013 43.5206C70.0661 43.9595 69.1072 44.179 68.0249 44.179C66.8189 44.179 65.7599 43.9084 64.848 43.3672C63.9403 42.8217 63.2308 42.0483 62.7195 41.0469C62.2124 40.0412 61.9588 38.848 61.9588 37.4673C61.9588 36.4105 62.108 35.4666 62.4062 34.6357C62.7088 33.8047 63.1307 33.0994 63.6719 32.5199C64.2131 31.9361 64.848 31.4929 65.5767 31.1903C66.3054 30.8835 67.098 30.7301 67.9545 30.7301C68.679 30.7301 69.3544 30.8366 69.9808 31.0497C70.6072 31.2585 71.1634 31.5568 71.6491 31.9446C72.1392 32.3324 72.5419 32.7926 72.8572 33.3253C73.1726 33.858 73.3793 34.446 73.4773 35.0895H71.0611ZM80.0595 44.1918C79.1007 44.1918 78.2697 43.9808 77.5666 43.5589C76.8635 43.1371 76.318 42.5469 75.9302 41.7884C75.5467 41.0298 75.3549 40.1435 75.3549 39.1293C75.3549 38.1151 75.5467 37.2266 75.9302 36.4638C76.318 35.701 76.8635 35.1087 77.5666 34.6868C78.2697 34.2649 79.1007 34.054 80.0595 34.054C81.0183 34.054 81.8493 34.2649 82.5524 34.6868C83.2555 35.1087 83.7988 35.701 84.1824 36.4638C84.5701 37.2266 84.764 38.1151 84.764 39.1293C84.764 40.1435 84.5701 41.0298 84.1824 41.7884C83.7988 42.5469 83.2555 43.1371 82.5524 43.5589C81.8493 43.9808 81.0183 44.1918 80.0595 44.1918ZM80.0723 42.3381C80.5922 42.3381 81.0268 42.1953 81.3762 41.9098C81.7257 41.62 81.9856 41.2322 82.1561 40.7464C82.3308 40.2607 82.4181 39.7195 82.4181 39.1229C82.4181 38.522 82.3308 37.9787 82.1561 37.4929C81.9856 37.0028 81.7257 36.6129 81.3762 36.3232C81.0268 36.0334 80.5922 35.8885 80.0723 35.8885C79.5396 35.8885 79.0964 36.0334 78.7427 36.3232C78.3933 36.6129 78.1312 37.0028 77.9565 37.4929C77.786 37.9787 77.7008 38.522 77.7008 39.1229C77.7008 39.7195 77.786 40.2607 77.9565 40.7464C78.1312 41.2322 78.3933 41.62 78.7427 41.9098C79.0964 42.1953 79.5396 42.3381 80.0723 42.3381ZM91.0107 44.1918C90.0518 44.1918 89.2209 43.9808 88.5178 43.5589C87.8146 43.1371 87.2692 42.5469 86.8814 41.7884C86.4979 41.0298 86.3061 40.1435 86.3061 39.1293C86.3061 38.1151 86.4979 37.2266 86.8814 36.4638C87.2692 35.701 87.8146 35.1087 88.5178 34.6868C89.2209 34.2649 90.0518 34.054 91.0107 34.054C91.9695 34.054 92.8004 34.2649 93.5036 34.6868C94.2067 35.1087 94.75 35.701 95.1335 36.4638C95.5213 37.2266 95.7152 38.1151 95.7152 39.1293C95.7152 40.1435 95.5213 41.0298 95.1335 41.7884C94.75 42.5469 94.2067 43.1371 93.5036 43.5589C92.8004 43.9808 91.9695 44.1918 91.0107 44.1918ZM91.0234 42.3381C91.5433 42.3381 91.978 42.1953 92.3274 41.9098C92.6768 41.62 92.9368 41.2322 93.1072 40.7464C93.282 40.2607 93.3693 39.7195 93.3693 39.1229C93.3693 38.522 93.282 37.9787 93.1072 37.4929C92.9368 37.0028 92.6768 36.6129 92.3274 36.3232C91.978 36.0334 91.5433 35.8885 91.0234 35.8885C90.4908 35.8885 90.0476 36.0334 89.6939 36.3232C89.3445 36.6129 89.0824 37.0028 88.9077 37.4929C88.7372 37.9787 88.652 38.522 88.652 39.1229C88.652 39.7195 88.7372 40.2607 88.9077 40.7464C89.0824 41.2322 89.3445 41.62 89.6939 41.9098C90.0476 42.1953 90.4908 42.3381 91.0234 42.3381ZM101.949 47.8864C101.118 47.8864 100.404 47.7734 99.8077 47.5476C99.2111 47.326 98.7317 47.0277 98.3695 46.6527C98.0073 46.2777 97.7559 45.8622 97.6152 45.4062L99.699 44.9013C99.7928 45.093 99.9292 45.2827 100.108 45.4702C100.287 45.6619 100.528 45.8196 100.83 45.9432C101.137 46.071 101.523 46.1349 101.987 46.1349C102.644 46.1349 103.187 45.9751 103.617 45.6555C104.048 45.3402 104.263 44.8203 104.263 44.0959V42.2358H104.148C104.029 42.4744 103.854 42.7195 103.624 42.9709C103.398 43.2223 103.097 43.4332 102.722 43.6037C102.352 43.7741 101.885 43.8594 101.323 43.8594C100.568 43.8594 99.8844 43.6825 99.2708 43.3288C98.6614 42.9709 98.1756 42.4382 97.8134 41.7308C97.4554 41.0192 97.2765 40.1286 97.2765 39.0589C97.2765 37.9808 97.4554 37.071 97.8134 36.3295C98.1756 35.5838 98.6635 35.0192 99.2772 34.6357C99.8908 34.2479 100.575 34.054 101.329 34.054C101.904 34.054 102.377 34.152 102.748 34.348C103.123 34.5398 103.421 34.772 103.643 35.0447C103.865 35.3132 104.033 35.5668 104.148 35.8054H104.276V34.1818H106.558V44.1598C106.558 44.9993 106.357 45.6939 105.957 46.2436C105.556 46.7933 105.009 47.2045 104.314 47.4773C103.619 47.75 102.831 47.8864 101.949 47.8864ZM101.968 42.044C102.458 42.044 102.876 41.9247 103.221 41.6861C103.566 41.4474 103.828 41.1044 104.007 40.657C104.186 40.2095 104.276 39.6726 104.276 39.0462C104.276 38.4283 104.186 37.8871 104.007 37.4226C103.833 36.9581 103.573 36.598 103.227 36.3423C102.887 36.0824 102.467 35.9524 101.968 35.9524C101.453 35.9524 101.022 36.0866 100.677 36.3551C100.332 36.6236 100.072 36.9922 99.8972 37.4609C99.7225 37.9254 99.6351 38.4538 99.6351 39.0462C99.6351 39.647 99.7225 40.1733 99.8972 40.625C100.076 41.0724 100.338 41.4219 100.683 41.6733C101.033 41.9205 101.461 42.044 101.968 42.044ZM111.243 30.9091V44H108.929V30.9091H111.243ZM117.969 44.1918C116.985 44.1918 116.135 43.9872 115.419 43.5781C114.707 43.1648 114.159 42.581 113.776 41.8267C113.392 41.0682 113.201 40.1754 113.201 39.1484C113.201 38.1385 113.392 37.2521 113.776 36.4893C114.164 35.7223 114.705 35.1257 115.4 34.6996C116.094 34.2692 116.91 34.054 117.848 34.054C118.453 34.054 119.024 34.152 119.561 34.348C120.102 34.5398 120.579 34.8381 120.993 35.2429C121.41 35.6477 121.738 36.1634 121.977 36.7898C122.216 37.4119 122.335 38.1534 122.335 39.0142V39.7237H114.287V38.1641H120.117C120.113 37.7209 120.017 37.3267 119.829 36.9815C119.642 36.6321 119.38 36.3572 119.043 36.157C118.711 35.9567 118.323 35.8565 117.88 35.8565C117.407 35.8565 116.991 35.9716 116.633 36.2017C116.275 36.4276 115.996 36.7259 115.796 37.0966C115.6 37.4631 115.5 37.8658 115.495 38.3047V39.6662C115.495 40.2372 115.6 40.7273 115.809 41.1364C116.017 41.5412 116.309 41.8523 116.684 42.0696C117.059 42.2827 117.498 42.3892 118.001 42.3892C118.338 42.3892 118.642 42.3423 118.915 42.2486C119.188 42.1506 119.424 42.0078 119.625 41.8203C119.825 41.6328 119.976 41.4006 120.078 41.1236L122.239 41.3665C122.103 41.9375 121.843 42.4361 121.459 42.8622C121.08 43.2841 120.594 43.6122 120.002 43.8466C119.409 44.0767 118.732 44.1918 117.969 44.1918ZM128.86 44V30.9091H133.769C134.774 30.9091 135.618 31.0966 136.3 31.4716C136.986 31.8466 137.504 32.3622 137.853 33.0185C138.207 33.6705 138.384 34.4119 138.384 35.2429C138.384 36.0824 138.207 36.8281 137.853 37.4801C137.499 38.1321 136.977 38.6456 136.287 39.0206C135.597 39.3913 134.747 39.5767 133.737 39.5767H130.483V37.6271H133.417C134.005 37.6271 134.487 37.5249 134.862 37.3203C135.237 37.1158 135.514 36.8345 135.693 36.4766C135.876 36.1186 135.968 35.7074 135.968 35.2429C135.968 34.7784 135.876 34.3693 135.693 34.0156C135.514 33.6619 135.235 33.3871 134.855 33.1911C134.48 32.9908 133.997 32.8906 133.404 32.8906H131.231V44H128.86ZM142.655 30.9091V44H140.341V30.9091H142.655ZM147.86 44.1982C147.238 44.1982 146.677 44.0874 146.179 43.8658C145.684 43.6399 145.292 43.3075 145.003 42.8686C144.717 42.4297 144.574 41.8885 144.574 41.245C144.574 40.6911 144.677 40.233 144.881 39.8707C145.086 39.5085 145.365 39.2188 145.719 39.0014C146.072 38.7841 146.471 38.62 146.914 38.5092C147.361 38.3942 147.824 38.3111 148.301 38.2599C148.876 38.2003 149.343 38.147 149.701 38.1001C150.059 38.049 150.319 37.9723 150.481 37.87C150.647 37.7635 150.73 37.5994 150.73 37.3778V37.3395C150.73 36.858 150.587 36.4851 150.302 36.2209C150.016 35.9567 149.605 35.8246 149.068 35.8246C148.501 35.8246 148.052 35.9482 147.719 36.1953C147.391 36.4425 147.17 36.7344 147.055 37.071L144.894 36.7642C145.064 36.1676 145.346 35.669 145.738 35.2685C146.13 34.8636 146.609 34.5611 147.176 34.3608C147.743 34.1562 148.369 34.054 149.055 34.054C149.528 34.054 149.999 34.1094 150.468 34.2202C150.937 34.331 151.365 34.5142 151.753 34.7699C152.14 35.0213 152.452 35.3643 152.686 35.799C152.925 36.2337 153.044 36.777 153.044 37.429V44H150.819V42.6513H150.743C150.602 42.924 150.404 43.1797 150.148 43.4183C149.897 43.6527 149.579 43.8423 149.196 43.9872C148.817 44.1278 148.371 44.1982 147.86 44.1982ZM148.461 42.4979C148.925 42.4979 149.328 42.4062 149.669 42.223C150.01 42.0355 150.272 41.7884 150.455 41.4815C150.643 41.1747 150.736 40.8402 150.736 40.478V39.321C150.664 39.3807 150.54 39.4361 150.366 39.4872C150.195 39.5384 150.003 39.5831 149.79 39.6214C149.577 39.6598 149.366 39.6939 149.157 39.7237C148.949 39.7536 148.768 39.7791 148.614 39.8004C148.269 39.8473 147.96 39.924 147.687 40.0305C147.415 40.1371 147.199 40.2862 147.042 40.478C146.884 40.6655 146.805 40.9084 146.805 41.2067C146.805 41.6328 146.961 41.9545 147.272 42.1719C147.583 42.3892 147.979 42.4979 148.461 42.4979ZM156.457 47.6818C156.142 47.6818 155.85 47.6563 155.581 47.6051C155.317 47.5582 155.106 47.5028 154.949 47.4389L155.486 45.6364C155.822 45.7344 156.123 45.7813 156.387 45.777C156.651 45.7727 156.883 45.6896 157.084 45.5277C157.288 45.37 157.461 45.1058 157.601 44.7351L157.8 44.2045L154.239 34.1818H156.694L158.956 41.5966H159.059L161.328 34.1818H163.789L159.858 45.1889C159.675 45.7088 159.432 46.1541 159.129 46.5249C158.827 46.8999 158.456 47.1854 158.017 47.3814C157.582 47.5817 157.062 47.6818 156.457 47.6818Z" fill="white"/>
<path d="M66.8523 19C66.7741 18.7609 66.6712 18.5466 66.5433 18.3572C66.4179 18.1655 66.2675 18.0021 66.0923 17.8672C65.9195 17.7322 65.723 17.6293 65.5028 17.5582C65.2827 17.4872 65.0412 17.4517 64.7784 17.4517C64.3475 17.4517 63.9557 17.563 63.603 17.7855C63.2502 18.008 62.9697 18.3359 62.7614 18.7692C62.553 19.2024 62.4489 19.7339 62.4489 20.3636C62.4489 20.9934 62.5542 21.5249 62.7649 21.9581C62.9756 22.3913 63.2609 22.7192 63.6207 22.9418C63.9806 23.1643 64.3854 23.2756 64.8352 23.2756C65.2519 23.2756 65.6188 23.1868 65.9361 23.0092C66.2557 22.8293 66.5043 22.576 66.6818 22.2493C66.8617 21.9202 66.9517 21.5331 66.9517 21.0881L67.2216 21.1449H65.0341V20.3636H67.804V21.1449C67.804 21.7438 67.6761 22.2647 67.4205 22.7074C67.1671 23.1501 66.8168 23.4934 66.3693 23.7372C65.9242 23.9787 65.4129 24.0994 64.8352 24.0994C64.1913 24.0994 63.6255 23.9479 63.1378 23.6449C62.6525 23.3419 62.2737 22.911 62.0014 22.3523C61.7315 21.7936 61.5966 21.1307 61.5966 20.3636C61.5966 19.7884 61.6735 19.2711 61.8274 18.8118C61.9837 18.3501 62.2038 17.9571 62.4879 17.6328C62.772 17.3085 63.1082 17.0599 63.4964 16.8871C63.8847 16.7143 64.312 16.6278 64.7784 16.6278C65.1619 16.6278 65.5194 16.6858 65.8509 16.8018C66.1847 16.9155 66.4818 17.0777 66.7422 17.2884C67.005 17.4967 67.224 17.7464 67.3991 18.0376C67.5743 18.3265 67.6951 18.6473 67.7614 19H66.8523ZM71.4856 24.1136C70.96 24.1136 70.5067 23.9976 70.1255 23.7656C69.7467 23.5312 69.4544 23.2045 69.2484 22.7855C69.0448 22.3641 68.943 21.8741 68.943 21.3153C68.943 20.7566 69.0448 20.2642 69.2484 19.8381C69.4544 19.4096 69.7408 19.0758 70.1078 18.8366C70.4771 18.5952 70.908 18.4744 71.4004 18.4744C71.6845 18.4744 71.965 18.5218 72.242 18.6165C72.519 18.7112 72.7711 18.8651 72.9984 19.0781C73.2257 19.2888 73.4068 19.5682 73.5417 19.9162C73.6767 20.2642 73.7441 20.6927 73.7441 21.2017V21.5568H69.5396V20.8324H72.8919C72.8919 20.5246 72.8303 20.25 72.7072 20.0085C72.5865 19.767 72.4136 19.5765 72.1887 19.4368C71.9662 19.2971 71.7034 19.2273 71.4004 19.2273C71.0666 19.2273 70.7778 19.3101 70.5339 19.4759C70.2924 19.6392 70.1066 19.8523 69.9764 20.1151C69.8462 20.3778 69.7811 20.6596 69.7811 20.9602V21.4432C69.7811 21.8551 69.8521 22.2043 69.9941 22.4908C70.1386 22.7749 70.3386 22.9915 70.5943 23.1406C70.85 23.2874 71.1471 23.3608 71.4856 23.3608C71.7058 23.3608 71.9047 23.33 72.0822 23.2685C72.2621 23.2045 72.4172 23.1098 72.5474 22.9844C72.6776 22.8565 72.7782 22.6979 72.8493 22.5085L73.6589 22.7358C73.5737 23.0104 73.4305 23.2519 73.2292 23.4602C73.028 23.6662 72.7794 23.8272 72.4835 23.9432C72.1876 24.0568 71.8549 24.1136 71.4856 24.1136ZM77.3912 18.5455V19.2557H74.5645V18.5455H77.3912ZM75.3883 17.2386H76.2264V22.4375C76.2264 22.6742 76.2607 22.8518 76.3294 22.9702C76.4004 23.0862 76.4904 23.1643 76.5993 23.2045C76.7105 23.2424 76.8277 23.2614 76.9508 23.2614C77.0431 23.2614 77.1189 23.2566 77.1781 23.2472C77.2373 23.2353 77.2846 23.2259 77.3201 23.2188L77.4906 23.9716C77.4338 23.9929 77.3545 24.0142 77.2527 24.0355C77.1509 24.0592 77.0218 24.071 76.8656 24.071C76.6288 24.071 76.3968 24.0201 76.1696 23.9183C75.9447 23.8165 75.7576 23.6615 75.6085 23.4531C75.4617 23.2448 75.3883 22.982 75.3883 22.6648V17.2386ZM81.4643 24V18.5455H82.3024V24H81.4643ZM81.8904 17.6364C81.7271 17.6364 81.5862 17.5807 81.4679 17.4695C81.3519 17.3582 81.2939 17.2244 81.2939 17.0682C81.2939 16.9119 81.3519 16.7782 81.4679 16.6669C81.5862 16.5556 81.7271 16.5 81.8904 16.5C82.0538 16.5 82.1935 16.5556 82.3095 16.6669C82.4279 16.7782 82.487 16.9119 82.487 17.0682C82.487 17.2244 82.4279 17.3582 82.3095 17.4695C82.1935 17.5807 82.0538 17.6364 81.8904 17.6364ZM86.2095 18.5455V19.2557H83.3828V18.5455H86.2095ZM84.2067 17.2386H85.0447V22.4375C85.0447 22.6742 85.0791 22.8518 85.1477 22.9702C85.2188 23.0862 85.3087 23.1643 85.4176 23.2045C85.5289 23.2424 85.6461 23.2614 85.7692 23.2614C85.8615 23.2614 85.9373 23.2566 85.9964 23.2472C86.0556 23.2353 86.103 23.2259 86.1385 23.2188L86.3089 23.9716C86.2521 23.9929 86.1728 24.0142 86.071 24.0355C85.9692 24.0592 85.8402 24.071 85.6839 24.071C85.4472 24.071 85.2152 24.0201 84.9879 23.9183C84.763 23.8165 84.576 23.6615 84.4268 23.4531C84.2801 23.2448 84.2067 22.982 84.2067 22.6648V17.2386ZM92.4986 24.1136C92.0062 24.1136 91.5741 23.9964 91.2024 23.7621C90.8331 23.5277 90.5443 23.1998 90.3359 22.7784C90.13 22.357 90.027 21.8646 90.027 21.3011C90.027 20.733 90.13 20.237 90.3359 19.8132C90.5443 19.3894 90.8331 19.0604 91.2024 18.826C91.5741 18.5916 92.0062 18.4744 92.4986 18.4744C92.991 18.4744 93.4219 18.5916 93.7912 18.826C94.1629 19.0604 94.4517 19.3894 94.6577 19.8132C94.866 20.237 94.9702 20.733 94.9702 21.3011C94.9702 21.8646 94.866 22.357 94.6577 22.7784C94.4517 23.1998 94.1629 23.5277 93.7912 23.7621C93.4219 23.9964 92.991 24.1136 92.4986 24.1136ZM92.4986 23.3608C92.8726 23.3608 93.1804 23.2649 93.4219 23.0732C93.6634 22.8814 93.8421 22.6293 93.9581 22.3168C94.0741 22.0043 94.1321 21.6657 94.1321 21.3011C94.1321 20.9366 94.0741 20.5968 93.9581 20.282C93.8421 19.9671 93.6634 19.7126 93.4219 19.5185C93.1804 19.3243 92.8726 19.2273 92.4986 19.2273C92.1245 19.2273 91.8168 19.3243 91.5753 19.5185C91.3338 19.7126 91.1551 19.9671 91.0391 20.282C90.9231 20.5968 90.8651 20.9366 90.8651 21.3011C90.8651 21.6657 90.9231 22.0043 91.0391 22.3168C91.1551 22.6293 91.3338 22.8814 91.5753 23.0732C91.8168 23.2649 92.1245 23.3608 92.4986 23.3608ZM97.0875 20.7188V24H96.2495V18.5455H97.0591V19.3977H97.1301C97.258 19.1207 97.4521 18.8982 97.7125 18.7301C97.973 18.5597 98.3091 18.4744 98.7211 18.4744C99.0904 18.4744 99.4135 18.5502 99.6905 18.7017C99.9675 18.8509 100.183 19.0781 100.337 19.3835C100.491 19.6866 100.568 20.0701 100.568 20.5341V24H99.7296V20.5909C99.7296 20.1624 99.6183 19.8286 99.3958 19.5895C99.1732 19.348 98.8678 19.2273 98.4796 19.2273C98.2121 19.2273 97.973 19.2853 97.7623 19.4013C97.5539 19.5173 97.3894 19.6866 97.2686 19.9091C97.1479 20.1316 97.0875 20.4015 97.0875 20.7188Z" fill="white"/>
<path opacity="0.5" fill-rule="evenodd" clip-rule="evenodd" d="M20.4907 14.48C20.1791 14.8581 20 15.4402 20 16.1965V43.0988C20 43.8551 20.1791 44.4372 20.5023 44.8022L20.5868 44.8828L33.9356 29.8088V29.4701L20.5751 14.3994L20.4907 14.48Z" fill="#00D7FF"/>
<path fill-rule="evenodd" clip-rule="evenodd" d="M38.3765 34.8532L33.924 29.8236V29.4717L38.3779 24.4421L38.474 24.5096L43.7419 27.89C45.2504 28.8502 45.2504 30.4319 43.7419 31.4053L38.474 34.7857C38.4726 34.7857 38.3765 34.8532 38.3765 34.8532Z" fill="#FFC800"/>
<path opacity="0.7" fill-rule="evenodd" clip-rule="evenodd" d="M38.4733 34.7858L33.9247 29.6477L20.4914 44.817C20.9821 45.4122 21.8076 45.4796 22.7308 44.8976L38.4733 34.7858Z" fill="#F63448"/>
<path opacity="0.9" fill-rule="evenodd" clip-rule="evenodd" d="M38.4733 24.5112L22.7308 14.4126C21.8091 13.8174 20.9821 13.8979 20.4914 14.4931L33.9232 29.6477L38.4733 24.5112Z" fill="#00F076"/>
<path opacity="0.2" fill-rule="evenodd" clip-rule="evenodd" d="M38.3766 34.6772L22.7418 44.7085C21.8682 45.2757 21.0892 45.2363 20.5869 44.7216L20.5024 44.817L20.5869 44.8976C21.0892 45.4106 21.8682 45.4517 22.7418 44.8844L38.4844 34.7858L38.3766 34.6772Z" fill="black"/>
<path opacity="0.12" fill-rule="evenodd" clip-rule="evenodd" d="M43.7405 31.2294L38.3648 34.6773L38.4609 34.7858L43.7288 31.4053C44.483 30.9187 44.8543 30.284 44.8543 29.6477C44.8063 30.2297 44.4233 30.7838 43.7405 31.2294Z" fill="black"/>
<path opacity="0.25" fill-rule="evenodd" clip-rule="evenodd" d="M22.73 14.5885L43.7405 28.0676C44.4234 28.5 44.8063 29.0672 44.866 29.6493C44.866 29.0146 44.4947 28.3783 43.7405 27.8917L22.73 14.4126C21.2216 13.4392 20 14.2498 20 16.1965V16.3724C20 14.4257 21.2216 13.6283 22.73 14.5885Z" fill="#00F076"/>
</svg>
