<svg width="33" height="33" viewBox="0 0 33 33" fill="none" xmlns="http://www.w3.org/2000/svg">
<g clip-path="url(#clip0_137_242)">
<g filter="url(#filter0_d_137_242)">
<rect width="33" height="33" rx="16.5" fill="#121212"/>
<rect x="0.75" y="0.75" width="31.5" height="31.5" rx="15.75" stroke="#00A99D" stroke-width="1.5"/>
</g>
<mask id="path-3-inside-1_137_242" fill="white">
<path d="M17.2125 11.9399C16.3146 11.7644 15.3857 11.841 14.5286 12.1611C14.487 12.1775 14.449 12.202 14.4169 12.2332C14.3847 12.2643 14.359 12.3015 14.3413 12.3426C14.3054 12.4256 14.3039 12.5194 14.3372 12.6034C14.3705 12.6875 14.4358 12.7548 14.5187 12.7907C14.6017 12.8266 14.6955 12.8281 14.7795 12.7948C15.5175 12.5158 16.318 12.4452 17.0934 12.5907C17.1389 12.6026 17.1863 12.605 17.2327 12.5978C17.2792 12.5905 17.3236 12.5736 17.3632 12.5483C17.4028 12.523 17.4368 12.4898 17.4629 12.4507C17.489 12.4117 17.5068 12.3676 17.515 12.3213C17.5233 12.2751 17.5218 12.2276 17.5108 12.1819C17.4998 12.1362 17.4795 12.0933 17.451 12.0558C17.4226 12.0184 17.3868 11.9873 17.3457 11.9644C17.3047 11.9415 17.2593 11.9274 17.2125 11.9229V11.9399Z"/>
</mask>
<path d="M17.2125 11.9399L17.0207 12.9213L18.2125 13.1542V11.9399H17.2125ZM14.5286 12.1611L14.1787 11.2243L14.1695 11.2277L14.1604 11.2313L14.5286 12.1611ZM14.3413 12.3426L13.4235 11.9455L14.3413 12.3426ZM14.7795 12.7948L14.4259 11.8594L14.4186 11.8622L14.4114 11.8651L14.7795 12.7948ZM17.0934 12.5907L17.3479 11.6236L17.3132 11.6144L17.2778 11.6078L17.0934 12.5907ZM17.2125 11.9229L17.308 10.9274L16.2125 10.8223V11.9229H17.2125ZM17.4043 10.9584C16.3252 10.7476 15.2088 10.8396 14.1787 11.2243L14.8784 13.0979C15.5626 12.8424 16.304 12.7813 17.0207 12.9213L17.4043 10.9584ZM14.1604 11.2313C13.9967 11.2961 13.8474 11.3926 13.7209 11.5151L15.1128 12.9513C15.0507 13.0115 14.9772 13.0589 14.8968 13.0908L14.1604 11.2313ZM13.7209 11.5151C13.5945 11.6376 13.4934 11.7839 13.4235 11.9455L15.259 12.7397C15.2247 12.8191 15.175 12.891 15.1128 12.9513L13.7209 11.5151ZM13.4235 11.9455C13.2823 12.2718 13.2765 12.6409 13.4074 12.9716L15.2669 12.2353C15.3313 12.3978 15.3285 12.5793 15.259 12.7397L13.4235 11.9455ZM13.4074 12.9716C13.5383 13.3022 13.7952 13.5673 14.1216 13.7085L14.9158 11.873C15.0763 11.9424 15.2026 12.0727 15.2669 12.2353L13.4074 12.9716ZM14.1216 13.7085C14.448 13.8497 14.8171 13.8555 15.1477 13.7246L14.4114 11.8651C14.5739 11.8007 14.7554 11.8035 14.9158 11.873L14.1216 13.7085ZM15.1332 13.7302C15.6996 13.5161 16.3139 13.4618 16.909 13.5735L17.2778 11.6078C16.3221 11.4285 15.3354 11.5155 14.4259 11.8594L15.1332 13.7302ZM16.8389 13.5577C17.0179 13.6048 17.2048 13.6144 17.3877 13.5857L17.0778 11.6098C17.1678 11.5957 17.2598 11.6004 17.3479 11.6236L16.8389 13.5577ZM17.3877 13.5857C17.5706 13.557 17.7456 13.4907 17.9016 13.3911L16.8249 11.7056C16.9017 11.6566 16.9878 11.6239 17.0778 11.6098L17.3877 13.5857ZM17.9016 13.3911C18.0576 13.2914 18.1913 13.1605 18.2942 13.0066L16.6316 11.8949C16.6823 11.8191 16.7481 11.7547 16.8249 11.7056L17.9016 13.3911ZM18.2942 13.0066C18.3971 12.8527 18.467 12.6791 18.4995 12.4969L16.5305 12.1458C16.5465 12.0561 16.581 11.9706 16.6316 11.8949L18.2942 13.0066ZM18.4995 12.4969C18.532 12.3147 18.5264 12.1276 18.483 11.9477L16.5387 12.4161C16.5173 12.3275 16.5146 12.2355 16.5305 12.1458L18.4995 12.4969ZM18.483 11.9477C18.4397 11.7677 18.3595 11.5986 18.2475 11.4512L16.6546 12.6605C16.5995 12.5879 16.56 12.5047 16.5387 12.4161L18.483 11.9477ZM18.2475 11.4512C18.1356 11.3037 17.9943 11.1811 17.8326 11.0909L16.8588 12.8378C16.7792 12.7935 16.7097 12.7331 16.6546 12.6605L18.2475 11.4512ZM17.8326 11.0909C17.6709 11.0008 17.4923 10.9451 17.308 10.9274L17.117 12.9183C17.0263 12.9096 16.9384 12.8822 16.8588 12.8378L17.8326 11.0909ZM16.2125 11.9229V11.9399H18.2125V11.9229H16.2125Z" fill="white" mask="url(#path-3-inside-1_137_242)"/>
<mask id="path-5-inside-2_137_242" fill="white">
<path d="M23.9288 15.4107C23.8893 15.3523 23.8361 15.3047 23.7737 15.2721C23.7113 15.2394 23.6419 15.2227 23.5715 15.2235C23.2278 15.1758 22.9125 15.0069 22.6825 14.7471C22.2398 14.2633 21.8636 13.7226 21.5638 13.1393L22.7888 11.2253C22.8632 11.1144 22.9087 10.9867 22.9213 10.8537C22.934 10.7208 22.9133 10.5868 22.8611 10.4639C22.8089 10.3521 22.73 10.2548 22.6314 10.1806C22.5327 10.1064 22.4174 10.0577 22.2954 10.0386C21.5164 9.93358 20.7236 10.0439 20.0028 10.3576C19.5898 10.5395 19.2011 10.7724 18.8459 11.0509C18.1502 10.7389 17.4094 10.5394 16.6511 10.4597C13.6354 10.1662 10.8792 12.1228 10.5261 14.7174C10.3886 14.6555 10.2653 14.5657 10.1643 14.4536C10.0632 14.3416 9.98658 14.2098 9.93917 14.0666C9.90884 13.9684 9.89848 13.8651 9.90871 13.7628C9.91894 13.6605 9.94954 13.5614 9.99871 13.4711C10.0428 13.3953 10.1058 13.3323 10.1816 13.2882C10.2333 13.2569 10.2783 13.2158 10.314 13.1671C10.3498 13.1184 10.3756 13.0632 10.3901 13.0045C10.4045 12.9459 10.4072 12.885 10.3981 12.8253C10.3889 12.7656 10.3681 12.7082 10.3369 12.6566C10.3056 12.6049 10.2644 12.5599 10.2158 12.5241C10.1671 12.4884 10.1119 12.4625 10.0532 12.4481C9.99455 12.4337 9.93363 12.431 9.87392 12.4401C9.81422 12.4492 9.75689 12.47 9.70523 12.5013C9.49933 12.6277 9.32941 12.8049 9.21183 13.016C9.10251 13.214 9.03378 13.4319 9.00968 13.6569C8.98558 13.8818 9.00658 14.1093 9.07146 14.326C9.15132 14.5887 9.28375 14.8323 9.4607 15.0422C9.63765 15.252 9.85543 15.4237 10.1008 15.5468L10.4921 15.7424C10.541 16.7778 10.8046 17.7918 11.2662 18.7199L11.3386 18.8815C11.7075 19.6617 12.178 20.3897 12.7379 21.0465C12.7778 21.0919 12.8269 21.1282 12.8819 21.1532C12.9369 21.1781 12.9966 21.191 13.0569 21.1911H14.9795C15.0492 21.1908 15.1177 21.1733 15.179 21.1403C15.2404 21.1073 15.2926 21.0597 15.3313 21.0017C15.3699 20.9437 15.3937 20.8772 15.4006 20.8079C15.4075 20.7385 15.3973 20.6686 15.3708 20.6041L15.2049 20.2213L15.7068 20.2766C16.2726 20.3325 16.8425 20.3325 17.4082 20.2766C17.5656 20.5318 17.7357 20.787 17.9229 21.038C17.9621 21.0916 18.0132 21.1353 18.0723 21.1656C18.1314 21.1959 18.1968 21.2119 18.2632 21.2124H20.1092C20.1794 21.2123 20.2485 21.1949 20.3103 21.1616C20.3721 21.1284 20.4248 21.0803 20.4635 21.0218C20.5023 20.9632 20.5259 20.896 20.5324 20.8261C20.5388 20.7562 20.5279 20.6858 20.5005 20.6211C20.4282 20.451 20.3559 20.2681 20.3006 20.1107C20.224 19.8853 20.1645 19.6854 20.1177 19.494C20.5874 19.2404 21.0185 18.921 21.398 18.5455C21.8218 18.5967 22.2502 18.5967 22.674 18.5455C22.7475 18.5343 22.8168 18.5041 22.8751 18.4579C22.9333 18.4116 22.9783 18.3509 23.0058 18.2817L23.967 15.8105C23.9941 15.7459 24.0047 15.6755 23.9981 15.6058C23.9914 15.536 23.9676 15.469 23.9288 15.4107V15.4107ZM22.321 17.7245C21.987 17.7436 21.6521 17.7279 21.3214 17.6778C20.9448 17.6142 20.5813 17.4891 20.2453 17.3077C20.1458 17.2584 20.0309 17.2499 19.9252 17.2841C19.8195 17.3184 19.7314 17.3926 19.6798 17.4909C19.6281 17.5893 19.617 17.7039 19.6487 17.8104C19.6805 17.9168 19.7526 18.0066 19.8497 18.0606C20.0275 18.1538 20.2107 18.2362 20.3984 18.3073C20.1665 18.5053 19.9089 18.6713 19.6328 18.8007L19.1819 19.0048C19.1819 19.0048 19.3903 19.9363 19.5307 20.3489H18.5184C18.4163 20.2043 17.9016 19.3451 17.9016 19.3451L17.6166 19.3834C17.018 19.4697 16.4115 19.4868 15.8089 19.4344C15.5282 19.4089 15.0603 19.3494 14.6945 19.2856L14.0352 19.1707C14.0352 19.1707 14.3032 20.2043 14.3542 20.3362H13.2569C12.8086 19.7873 12.4287 19.186 12.1254 18.5455L12.0489 18.3796C11.4962 17.3158 11.2628 16.1149 11.3768 14.9215C11.6065 12.714 13.9799 11.0466 16.5618 11.2891C17.3128 11.3733 18.0438 11.5862 18.7225 11.9186L18.9862 12.0419L19.1989 11.842C19.5301 11.5461 19.9045 11.3022 20.3091 11.1189C20.8444 10.8868 21.4292 10.7917 22.0105 10.8425L20.5728 13.0925L20.6791 13.3052C21.0506 14.0535 21.5245 14.7463 22.087 15.3639C22.3483 15.6193 22.6577 15.8202 22.9973 15.9551L22.321 17.7245Z"/>
</mask>
<path d="M23.5715 15.2235L23.434 16.214L23.5081 16.2243L23.5829 16.2235L23.5715 15.2235ZM22.6825 14.7471L23.4311 14.0841L23.4258 14.0781L23.4203 14.0721L22.6825 14.7471ZM21.5638 13.1393L20.7216 12.6003L20.4115 13.0848L20.6744 13.5965L21.5638 13.1393ZM22.7888 11.2253L21.9581 10.6686L21.9523 10.6773L21.9466 10.6862L22.7888 11.2253ZM22.8611 10.4639L23.7818 10.0735L23.7748 10.0571L23.7673 10.0409L22.8611 10.4639ZM22.2954 10.0386L22.4502 9.05061L22.4396 9.04896L22.429 9.04753L22.2954 10.0386ZM20.0028 10.3576L19.6038 9.44064L19.5997 9.44242L20.0028 10.3576ZM18.8459 11.0509L18.4367 11.9634L18.9877 12.2104L19.4628 11.8379L18.8459 11.0509ZM16.6511 10.4597L16.7557 9.46511L16.748 9.46436L16.6511 10.4597ZM10.5261 14.7174L10.1159 15.6293L11.3366 16.1785L11.517 14.8522L10.5261 14.7174ZM9.93917 14.0666L8.98369 14.3616L8.98667 14.3713L8.98985 14.3809L9.93917 14.0666ZM9.99871 13.4711L9.13441 12.9681L9.12732 12.9803L9.12058 12.9927L9.99871 13.4711ZM10.1816 13.2882L10.6846 14.1525L10.6921 14.1481L10.6995 14.1436L10.1816 13.2882ZM9.70523 12.5013L9.18732 11.6459L9.18211 11.6491L9.70523 12.5013ZM9.21183 13.016L8.33825 12.5293L8.33633 12.5328L9.21183 13.016ZM9.07146 14.326L8.11346 14.6128L8.11472 14.617L9.07146 14.326ZM10.1008 15.5468L9.65245 16.4406L9.65358 16.4412L10.1008 15.5468ZM10.4921 15.7424L11.491 15.6953L11.4634 15.11L10.9393 14.848L10.4921 15.7424ZM11.2662 18.7199L12.1791 18.3115L12.1707 18.2928L12.1616 18.2745L11.2662 18.7199ZM11.3386 18.8815L10.4257 19.2899L10.43 19.2994L10.4345 19.3089L11.3386 18.8815ZM12.7379 21.0465L11.9769 21.6953L11.9818 21.7009L11.9867 21.7065L12.7379 21.0465ZM13.0569 21.1911L13.0557 22.1911H13.0569V21.1911ZM14.9795 21.1911V22.1911L14.9845 22.1911L14.9795 21.1911ZM15.3708 20.6041L16.2958 20.2241L16.2922 20.2153L16.2884 20.2065L15.3708 20.6041ZM15.2049 20.2213L15.3144 19.2273L13.6026 19.0387L14.2874 20.6189L15.2049 20.2213ZM15.7068 20.2766L15.5973 21.2707L15.6085 21.2718L15.7068 20.2766ZM17.4082 20.2766L18.2594 19.7517L17.9315 19.22L17.3098 19.2815L17.4082 20.2766ZM17.9229 21.038L18.7303 20.448L18.7245 20.4402L17.9229 21.038ZM18.2632 21.2124L18.2557 22.2124H18.2632V21.2124ZM20.1092 21.2124V22.2124L20.11 22.2124L20.1092 21.2124ZM20.5005 20.6211L21.4213 20.2311L21.4208 20.23L20.5005 20.6211ZM20.3006 20.1107L19.3536 20.4323L19.3571 20.4422L20.3006 20.1107ZM20.1177 19.494L19.6426 18.614L18.9628 18.981L19.1463 19.7314L20.1177 19.494ZM21.398 18.5455L21.518 17.5527L21.0381 17.4947L20.6945 17.8347L21.398 18.5455ZM22.674 18.5455L22.794 19.5382L22.8088 19.5364L22.8235 19.5342L22.674 18.5455ZM23.0058 18.2817L23.9353 18.6505L23.9377 18.6443L23.0058 18.2817ZM23.967 15.8105L23.0445 15.4245L23.0396 15.4362L23.0351 15.448L23.967 15.8105ZM22.321 17.7245L22.3778 18.7229L23.024 18.6861L23.255 18.0816L22.321 17.7245ZM21.3214 17.6778L21.1548 18.6638L21.1632 18.6652L21.1715 18.6665L21.3214 17.6778ZM20.2453 17.3077L20.7204 16.4278L20.7051 16.4195L20.6895 16.4118L20.2453 17.3077ZM19.8497 18.0606L19.3639 18.9347L19.3746 18.9406L19.3853 18.9462L19.8497 18.0606ZM20.3984 18.3073L21.0477 19.0678L22.3326 17.9707L20.7527 17.3721L20.3984 18.3073ZM19.6328 18.8007L20.0453 19.7117L20.0571 19.7062L19.6328 18.8007ZM19.1819 19.0048L18.7694 18.0939L18.0284 18.4294L18.206 19.2232L19.1819 19.0048ZM19.5307 20.3489V21.3489H20.9272L20.4774 20.0268L19.5307 20.3489ZM18.5184 20.3489L17.7014 20.9256L18.0002 21.3489H18.5184V20.3489ZM17.9016 19.3451L18.7595 18.8312L18.4211 18.2663L17.7685 18.354L17.9016 19.3451ZM17.6166 19.3834L17.4835 18.3922L17.4739 18.3936L17.6166 19.3834ZM15.8089 19.4344L15.7184 20.4303L15.7223 20.4307L15.8089 19.4344ZM14.6945 19.2856L14.8663 18.3004L14.8661 18.3004L14.6945 19.2856ZM14.0352 19.1707L14.2068 18.1856L12.6777 17.9192L13.0672 19.4217L14.0352 19.1707ZM14.3542 20.3362V21.3362H15.8136L15.2868 19.9752L14.3542 20.3362ZM13.2569 20.3362L12.4823 20.9687L12.7824 21.3362H13.2569V20.3362ZM12.1254 18.5455L11.2174 18.9645L11.2216 18.9733L12.1254 18.5455ZM12.0489 18.3796L12.9568 17.9605L12.947 17.9393L12.9363 17.9186L12.0489 18.3796ZM11.3768 14.9215L10.3822 14.818L10.3814 14.8264L11.3768 14.9215ZM16.5618 11.2891L16.6732 10.2953L16.6642 10.2943L16.6553 10.2935L16.5618 11.2891ZM18.7225 11.9186L18.2828 12.8167L18.2908 12.8206L18.2989 12.8244L18.7225 11.9186ZM18.9862 12.0419L18.5626 12.9478L19.177 13.2351L19.6712 12.7706L18.9862 12.0419ZM19.1989 11.842L18.5326 11.0964L18.5232 11.1048L18.514 11.1134L19.1989 11.842ZM20.3091 11.1189L19.9112 10.2015L19.9038 10.2047L19.8964 10.2081L20.3091 11.1189ZM22.0105 10.8425L22.8531 11.3809L23.742 9.98978L22.0974 9.84626L22.0105 10.8425ZM20.5728 13.0925L19.7301 12.5541L19.4246 13.0323L19.6784 13.5398L20.5728 13.0925ZM20.6791 13.3052L21.5748 12.8605L21.5735 12.858L20.6791 13.3052ZM22.087 15.3639L21.3478 16.0373L21.3673 16.0588L21.3881 16.0791L22.087 15.3639ZM22.9973 15.9551L23.9313 16.3121L24.2837 15.3902L23.3665 15.0258L22.9973 15.9551ZM24.7573 14.8507C24.6252 14.6553 24.4467 14.4957 24.2377 14.3862L23.3097 16.1579C23.2254 16.1138 23.1535 16.0494 23.1002 15.9706L24.7573 14.8507ZM24.2377 14.3862C24.0287 14.2768 23.7959 14.2209 23.56 14.2236L23.5829 16.2235C23.4878 16.2245 23.394 16.202 23.3097 16.1579L24.2377 14.3862ZM23.709 14.233C23.6015 14.2181 23.503 14.1653 23.4311 14.0841L21.9339 15.4102C22.3221 15.8484 22.8541 16.1335 23.434 16.214L23.709 14.233ZM23.4203 14.0721C23.0376 13.6538 22.7124 13.1864 22.4532 12.6822L20.6744 13.5965C21.0149 14.2588 21.442 14.8727 21.9447 15.4221L23.4203 14.0721ZM22.4061 13.6784L23.6311 11.7643L21.9466 10.6862L20.7216 12.6003L22.4061 13.6784ZM23.6195 11.782C23.7863 11.5331 23.8885 11.2466 23.9168 10.9483L21.9258 10.7592C21.9289 10.7268 21.94 10.6956 21.9581 10.6686L23.6195 11.782ZM23.9168 10.9483C23.9452 10.65 23.8988 10.3494 23.7818 10.0735L21.9405 10.8543C21.9278 10.8243 21.9227 10.7916 21.9258 10.7592L23.9168 10.9483ZM23.7673 10.0409C23.6457 9.78054 23.462 9.55403 23.2323 9.38134L22.0304 10.9799C21.998 10.9555 21.9721 10.9236 21.955 10.8869L23.7673 10.0409ZM23.2323 9.38134C23.0027 9.20865 22.7341 9.09507 22.4502 9.05061L22.1407 11.0265C22.1007 11.0203 22.0628 11.0042 22.0304 10.9799L23.2323 9.38134ZM22.429 9.04753C21.469 8.91815 20.492 9.05411 19.6038 9.44065L20.4019 11.2745C20.9552 11.0337 21.5638 10.949 22.1619 11.0296L22.429 9.04753ZM19.5997 9.44242C19.1103 9.65799 18.6498 9.93395 18.2289 10.2639L19.4628 11.8379C19.7524 11.6109 20.0692 11.421 20.4059 11.2727L19.5997 9.44242ZM19.255 10.1384C18.4628 9.78317 17.6192 9.55592 16.7557 9.46514L16.5466 11.4542C17.1996 11.5228 17.8376 11.6947 18.4367 11.9634L19.255 10.1384ZM16.748 9.46436C13.3088 9.12966 9.97496 11.3511 9.53527 14.5825L11.517 14.8522C11.7834 12.8945 13.962 11.2027 16.5542 11.455L16.748 9.46436ZM10.9364 13.8054C10.9252 13.8003 10.9151 13.793 10.9069 13.7839L9.42172 15.1234C9.61556 15.3383 9.85195 15.5106 10.1159 15.6293L10.9364 13.8054ZM10.9069 13.7839C10.8986 13.7747 10.8924 13.764 10.8885 13.7523L8.98985 14.3809C9.08081 14.6556 9.22788 14.9085 9.42172 15.1234L10.9069 13.7839ZM10.8946 13.7715C10.9037 13.8009 10.9068 13.8318 10.9037 13.8623L8.91367 13.6633C8.89016 13.8984 8.91397 14.1359 8.98369 14.3616L10.8946 13.7715ZM10.9037 13.8623C10.9007 13.8929 10.8915 13.9225 10.8768 13.9495L9.12058 12.9927C9.00754 13.2002 8.93719 13.4282 8.91367 13.6633L10.9037 13.8623ZM10.863 13.9741C10.82 14.048 10.7585 14.1095 10.6846 14.1525L9.67865 12.4239C9.45316 12.5551 9.26562 12.7426 9.13441 12.9681L10.863 13.9741ZM10.6995 14.1436C10.8635 14.0444 11.0064 13.9137 11.1199 13.7592L9.50821 12.575C9.55021 12.5178 9.60305 12.4695 9.66372 12.4328L10.6995 14.1436ZM11.1199 13.7592C11.2334 13.6047 11.3154 13.4294 11.3612 13.2432L9.41896 12.7658C9.43589 12.697 9.46621 12.6321 9.50821 12.575L11.1199 13.7592ZM11.3612 13.2432C11.4069 13.057 11.4156 12.8637 11.3866 12.6742L9.40955 12.9764C9.39883 12.9063 9.40203 12.8347 9.41896 12.7658L11.3612 13.2432ZM11.3866 12.6742C11.3576 12.4846 11.2916 12.3027 11.1923 12.1387L9.48142 13.1745C9.44469 13.1138 9.42027 13.0465 9.40955 12.9764L11.3866 12.6742ZM11.1923 12.1387C11.093 11.9747 10.9624 11.8318 10.8079 11.7183L9.62362 13.33C9.56647 13.288 9.51815 13.2351 9.48142 13.1745L11.1923 12.1387ZM10.8079 11.7183C10.6534 11.6048 10.4781 11.5228 10.2919 11.477L9.81451 13.4192C9.74564 13.4023 9.68077 13.372 9.62362 13.33L10.8079 11.7183ZM10.2919 11.477C10.1057 11.4313 9.91234 11.4226 9.72282 11.4516L10.025 13.4286C9.95492 13.4393 9.88338 13.4361 9.81451 13.4192L10.2919 11.477ZM9.72282 11.4516C9.5333 11.4806 9.35134 11.5466 9.18733 11.6459L10.2231 13.3568C10.1624 13.3935 10.0951 13.4179 10.025 13.4286L9.72282 11.4516ZM9.18211 11.6491C8.82996 11.8652 8.53936 12.1683 8.33826 12.5293L10.0854 13.5027C10.1195 13.4415 10.1687 13.3902 10.2283 13.3536L9.18211 11.6491ZM8.33633 12.5328C8.16275 12.8472 8.05364 13.1932 8.01537 13.5503L10.004 13.7634C10.0139 13.6707 10.0423 13.5809 10.0873 13.4992L8.33633 12.5328ZM8.01537 13.5503C7.97711 13.9075 8.01045 14.2687 8.11347 14.6128L10.0295 14.0393C10.0027 13.9499 9.99406 13.8561 10.004 13.7634L8.01537 13.5503ZM8.11472 14.617C8.23402 15.0093 8.43185 15.3733 8.6962 15.6868L10.2252 14.3975C10.1356 14.2913 10.0686 14.168 10.0282 14.0351L8.11472 14.617ZM8.6962 15.6868C8.96055 16.0003 9.2859 16.2568 9.65245 16.4406L10.5491 14.6529C10.425 14.5906 10.3148 14.5038 10.2252 14.3975L8.6962 15.6868ZM9.65358 16.4412L10.0449 16.6369L10.9393 14.848L10.548 14.6524L9.65358 16.4412ZM9.49323 15.7896C9.54865 16.9635 9.84753 18.113 10.3709 19.1652L12.1616 18.2745C11.7617 17.4705 11.5333 16.5922 11.491 15.6953L9.49323 15.7896ZM10.3534 19.1282L10.4257 19.2899L12.2514 18.4731L12.1791 18.3115L10.3534 19.1282ZM10.4345 19.3089C10.8411 20.1689 11.3598 20.9713 11.9769 21.6953L13.4989 20.3977C12.9962 19.8081 12.5738 19.1545 12.2426 18.454L10.4345 19.3089ZM11.9867 21.7065C12.1202 21.8585 12.2846 21.9804 12.469 22.0639L13.2948 20.2424C13.3691 20.2761 13.4354 20.3252 13.4892 20.3865L11.9867 21.7065ZM12.469 22.0639C12.6533 22.1475 12.8533 22.1909 13.0557 22.1911L13.0582 20.1911C13.1398 20.1912 13.2204 20.2087 13.2948 20.2424L12.469 22.0639ZM13.0569 22.1911H14.9795V20.1911H13.0569V22.1911ZM14.9845 22.1911C15.2179 22.1899 15.4475 22.1314 15.6531 22.0208L14.705 20.2598C14.7878 20.2152 14.8804 20.1916 14.9745 20.1911L14.9845 22.1911ZM15.6531 22.0208C15.8586 21.9101 16.0338 21.7507 16.1633 21.5564L14.4992 20.447C14.5514 20.3687 14.6221 20.3044 14.705 20.2598L15.6531 22.0208ZM16.1633 21.5564C16.2928 21.3622 16.3726 21.1391 16.3957 20.9068L14.4055 20.7089C14.4149 20.6153 14.447 20.5253 14.4992 20.447L16.1633 21.5564ZM16.3957 20.9068C16.4188 20.6745 16.3845 20.4401 16.2958 20.2241L14.4458 20.9841C14.4101 20.8971 14.3962 20.8026 14.4055 20.7089L16.3957 20.9068ZM16.2884 20.2065L16.1225 19.8237L14.2874 20.6189L14.4533 21.0017L16.2884 20.2065ZM15.0954 21.2153L15.5973 21.2706L15.8163 19.2826L15.3144 19.2273L15.0954 21.2153ZM15.6085 21.2718C16.2396 21.3342 16.8754 21.3342 17.5066 21.2718L17.3098 19.2815C16.8095 19.3309 16.3055 19.3309 15.8052 19.2815L15.6085 21.2718ZM16.557 20.8015C16.727 21.0772 16.9136 21.3573 17.1213 21.6358L18.7245 20.4402C18.5579 20.2167 18.4042 19.9865 18.2594 19.7517L16.557 20.8015ZM17.1155 21.628C17.2467 21.8076 17.4182 21.954 17.6162 22.0555L18.5284 20.2756C18.6082 20.3166 18.6774 20.3756 18.7303 20.448L17.1155 21.628ZM17.6162 22.0555C17.8142 22.157 18.0333 22.2107 18.2557 22.2123L18.2706 20.2124C18.3603 20.2131 18.4486 20.2347 18.5284 20.2756L17.6162 22.0555ZM18.2632 22.2124H20.1092V20.2124H18.2632V22.2124ZM20.11 22.2124C20.3452 22.2122 20.5768 22.1538 20.784 22.0423L19.8366 20.2809C19.9201 20.236 20.0135 20.2125 20.1083 20.2124L20.11 22.2124ZM20.784 22.0423C20.9912 21.9309 21.1676 21.7699 21.2974 21.5737L19.6296 20.4699C19.682 20.3908 19.7531 20.3259 19.8366 20.2809L20.784 22.0423ZM21.2974 21.5737C21.4272 21.3775 21.5065 21.1523 21.5281 20.918L19.5366 20.7342C19.5453 20.6398 19.5773 20.549 19.6296 20.4699L21.2974 21.5737ZM21.5281 20.918C21.5497 20.6838 21.513 20.4478 21.4213 20.2311L19.5797 21.0111C19.5427 20.9238 19.5279 20.8287 19.5366 20.7342L21.5281 20.918ZM21.4208 20.23C21.3545 20.0739 21.2905 19.9115 21.244 19.7792L19.3571 20.4422C19.4212 20.6247 19.5019 20.8281 19.5801 21.0123L21.4208 20.23ZM21.2474 19.7892C21.178 19.5847 21.1274 19.4134 21.0891 19.2565L19.1463 19.7314C19.2015 19.9574 19.27 20.1859 19.3537 20.4323L21.2474 19.7892ZM20.5927 20.3739C21.1463 20.0751 21.6543 19.6987 22.1014 19.2562L20.6945 17.8347C20.3828 18.1432 20.0286 18.4057 19.6426 18.614L20.5927 20.3739ZM21.278 19.5382C21.7815 19.5991 22.2905 19.5991 22.794 19.5382L22.554 17.5527C22.2099 17.5943 21.862 17.5943 21.518 17.5527L21.278 19.5382ZM22.8235 19.5342C23.0699 19.497 23.3022 19.3958 23.4973 19.2407L22.2528 17.675C22.3315 17.6125 22.4251 17.5717 22.5245 17.5567L22.8235 19.5342ZM23.4973 19.2407C23.6924 19.0856 23.8434 18.8821 23.9353 18.6505L22.0762 17.913C22.1133 17.8196 22.1742 17.7376 22.2528 17.675L23.4973 19.2407ZM23.9377 18.6443L24.899 16.173L23.0351 15.448L22.0738 17.9192L23.9377 18.6443ZM24.8895 16.1965C24.9802 15.9799 25.0159 15.7442 24.9935 15.5105L23.0026 15.7011C22.9936 15.6068 23.008 15.5118 23.0445 15.4245L24.8895 16.1965ZM24.9935 15.5105C24.9711 15.2767 24.8913 15.0521 24.7613 14.8567L23.0963 15.9647C23.0438 15.8859 23.0116 15.7953 23.0026 15.7011L24.9935 15.5105ZM22.2641 16.7262C21.9993 16.7412 21.7335 16.7288 21.4712 16.6891L21.1715 18.6665C21.5706 18.7269 21.9748 18.7459 22.3778 18.7229L22.2641 16.7262ZM21.488 16.6917C21.2194 16.6464 20.9601 16.5572 20.7204 16.4278L19.7702 18.1876C20.2025 18.4211 20.6703 18.5819 21.1548 18.6638L21.488 16.6917ZM20.6895 16.4118C20.356 16.2464 19.9711 16.2181 19.617 16.3328L20.2334 18.2355C20.0907 18.2817 19.9355 18.2703 19.801 18.2036L20.6895 16.4118ZM19.617 16.3328C19.2629 16.4476 18.9677 16.6963 18.7945 17.0258L20.565 17.9561C20.4952 18.0889 20.3762 18.1892 20.2334 18.2355L19.617 16.3328ZM18.7945 17.0258C18.6214 17.3553 18.584 17.7395 18.6904 18.0962L20.607 17.5245C20.6499 17.6683 20.6348 17.8232 20.565 17.9561L18.7945 17.0258ZM18.6904 18.0962C18.7968 18.4529 19.0386 18.7538 19.3639 18.9347L20.3355 17.1865C20.4666 17.2594 20.5641 17.3807 20.607 17.5245L18.6904 18.0962ZM19.3853 18.9462C19.5988 19.0581 19.8188 19.157 20.0441 19.2424L20.7527 17.3721C20.6026 17.3153 20.4562 17.2494 20.3141 17.1749L19.3853 18.9462ZM19.7491 17.5468C19.5853 17.6866 19.4035 17.8038 19.2084 17.8952L20.0571 19.7062C20.4144 19.5387 20.7476 19.324 21.0477 19.0678L19.7491 17.5468ZM19.2203 17.8897L18.7694 18.0939L19.5944 19.9158L20.0453 19.7116L19.2203 17.8897ZM19.1819 19.0048C18.206 19.2232 18.206 19.2232 18.206 19.2232C18.2061 19.2233 18.2061 19.2233 18.2061 19.2233C18.2061 19.2234 18.2061 19.2235 18.2061 19.2235C18.2062 19.2237 18.2062 19.2239 18.2063 19.2242C18.2064 19.2248 18.2066 19.2256 18.2068 19.2266C18.2073 19.2287 18.2079 19.2316 18.2088 19.2353C18.2105 19.2428 18.2129 19.2536 18.216 19.2673C18.2223 19.2948 18.2313 19.3342 18.2425 19.3826C18.2649 19.4792 18.2963 19.6127 18.3324 19.76C18.4011 20.0409 18.4977 20.4174 18.584 20.671L20.4774 20.0268C20.4233 19.8678 20.3455 19.5724 20.275 19.2843C20.2414 19.1471 20.2119 19.022 20.1908 18.9311C20.1803 18.8857 20.172 18.8491 20.1663 18.824C20.1634 18.8115 20.1612 18.8019 20.1598 18.7955C20.1591 18.7923 20.1586 18.7899 20.1582 18.7884C20.158 18.7877 20.1579 18.7871 20.1578 18.7868C20.1578 18.7866 20.1578 18.7865 20.1578 18.7865C20.1578 18.7864 20.1578 18.7864 20.1578 18.7864C20.1578 18.7864 20.1578 18.7865 20.1578 18.7865C20.1578 18.7865 20.1578 18.7865 19.1819 19.0048ZM19.5307 19.3489H18.5184V21.3489H19.5307V19.3489ZM19.3353 19.7722C19.3371 19.7747 19.3287 19.7626 19.3054 19.726C19.2847 19.6938 19.2588 19.6524 19.2286 19.6038C19.1685 19.5069 19.0965 19.389 19.0264 19.2737C18.9566 19.1587 18.8898 19.048 18.8404 18.9659C18.8157 18.9249 18.7954 18.8911 18.7813 18.8676C18.7743 18.8559 18.7688 18.8467 18.7651 18.8405C18.7632 18.8375 18.7618 18.8351 18.7609 18.8335C18.7604 18.8327 18.76 18.8322 18.7598 18.8318C18.7597 18.8316 18.7596 18.8314 18.7596 18.8314C18.7595 18.8313 18.7595 18.8313 18.7595 18.8313C18.7595 18.8312 18.7595 18.8312 18.7595 18.8312C18.7595 18.8312 18.7595 18.8312 17.9016 19.3451C17.0438 19.859 17.0438 19.859 17.0438 19.859C17.0438 19.859 17.0438 19.859 17.0438 19.859C17.0438 19.8591 17.0438 19.8591 17.0439 19.8592C17.0439 19.8593 17.044 19.8595 17.0442 19.8597C17.0444 19.8601 17.0448 19.8608 17.0453 19.8616C17.0464 19.8633 17.0478 19.8658 17.0498 19.869C17.0537 19.8755 17.0593 19.8849 17.0665 19.897C17.081 19.9211 17.1017 19.9555 17.1269 19.9973C17.1771 20.0808 17.2454 20.194 17.317 20.3119C17.447 20.5259 17.6249 20.8172 17.7014 20.9256L19.3353 19.7722ZM17.7685 18.354L17.4835 18.3923L17.7498 20.3745L18.0348 20.3362L17.7685 18.354ZM17.4739 18.3936C16.9513 18.469 16.4217 18.4839 15.8956 18.4382L15.7223 20.4307C16.4013 20.4897 17.0848 20.4704 17.7594 20.3732L17.4739 18.3936ZM15.8995 18.4385C15.645 18.4154 15.2043 18.3594 14.8663 18.3004L14.5227 20.2707C14.9163 20.3394 15.4114 20.4024 15.7184 20.4303L15.8995 18.4385ZM14.8661 18.3004L14.2068 18.1856L13.8636 20.1559L14.5229 20.2707L14.8661 18.3004ZM14.0352 19.1707C13.0672 19.4217 13.0672 19.4217 13.0672 19.4217C13.0672 19.4217 13.0673 19.4217 13.0673 19.4218C13.0673 19.4218 13.0673 19.4219 13.0673 19.4219C13.0673 19.4221 13.0674 19.4223 13.0675 19.4225C13.0676 19.4231 13.0678 19.4239 13.0681 19.4249C13.0686 19.4269 13.0694 19.4299 13.0704 19.4338C13.0724 19.4416 13.0754 19.4529 13.0791 19.4674C13.0867 19.4963 13.0974 19.5377 13.1105 19.5877C13.1367 19.6875 13.1722 19.8225 13.2094 19.9619C13.2719 20.196 13.3707 20.5654 13.4217 20.6972L15.2868 19.9752C15.2958 19.9983 15.2841 19.9656 15.2459 19.829C15.2152 19.7192 15.1781 19.5822 15.1418 19.4461C15.1056 19.3107 15.071 19.1789 15.0453 19.0809C15.0324 19.0319 15.0219 18.9915 15.0146 18.9634C15.0109 18.9493 15.0081 18.9383 15.0061 18.9309C15.0052 18.9272 15.0044 18.9244 15.0039 18.9225C15.0037 18.9216 15.0035 18.9208 15.0034 18.9204C15.0033 18.9202 15.0033 18.92 15.0033 18.9199C15.0033 18.9198 15.0032 18.9198 15.0032 18.9198C15.0032 18.9198 15.0032 18.9198 15.0032 18.9198C15.0032 18.9198 15.0032 18.9198 14.0352 19.1707ZM14.3542 19.3362H13.2569V21.3362H14.3542V19.3362ZM14.0314 19.7036C13.6343 19.2175 13.2978 18.6849 13.0293 18.1176L11.2216 18.9733C11.5595 19.6871 11.9828 20.3571 12.4823 20.9687L14.0314 19.7036ZM13.0334 18.1264L12.9568 17.9605L11.1409 18.7986L11.2175 18.9645L13.0334 18.1264ZM12.9363 17.9186C12.4725 17.0258 12.2766 16.0181 12.3723 15.0166L10.3814 14.8264C10.249 16.2117 10.52 17.6057 11.1615 18.8406L12.9363 17.9186ZM12.3715 15.025C12.5304 13.4978 14.2867 12.0798 16.4683 12.2847L16.6553 10.2935C13.6732 10.0134 10.6827 11.9302 10.3822 14.818L12.3715 15.025ZM16.4504 12.2829C17.0873 12.3543 17.7072 12.5348 18.2828 12.8167L19.1623 11.0205C18.3804 10.6376 17.5384 10.3923 16.6732 10.2953L16.4504 12.2829ZM18.2989 12.8244L18.5626 12.9478L19.4099 11.1361L19.1462 11.0128L18.2989 12.8244ZM19.6712 12.7706L19.8838 12.5707L18.514 11.1134L18.3013 11.3133L19.6712 12.7706ZM19.8652 12.5877C20.1208 12.3594 20.4096 12.1712 20.7217 12.0298L19.8964 10.2081C19.3994 10.4332 18.9395 10.7328 18.5326 11.0964L19.8652 12.5877ZM20.707 12.0364C21.0897 11.8704 21.5079 11.8024 21.9235 11.8387L22.0974 9.84626C21.3504 9.78107 20.599 9.90317 19.9112 10.2015L20.707 12.0364ZM21.1678 10.304L19.7301 12.5541L21.4155 13.631L22.8531 11.3809L21.1678 10.304ZM19.6784 13.5398L19.7847 13.7524L21.5735 12.858L21.4672 12.6453L19.6784 13.5398ZM19.7834 13.7499C20.1962 14.5813 20.7227 15.3511 21.3478 16.0373L22.8263 14.6905C22.3262 14.1415 21.905 13.5256 21.5748 12.8605L19.7834 13.7499ZM21.3881 16.0791C21.744 16.4269 22.1655 16.7007 22.628 16.8845L23.3665 15.0258C23.1499 14.9397 22.9526 14.8116 22.786 14.6487L21.3881 16.0791ZM22.0632 15.5981L21.3869 17.3675L23.255 18.0816L23.9313 16.3121L22.0632 15.5981Z" fill="white" mask="url(#path-5-inside-2_137_242)"/>
</g>
<defs>
<filter id="filter0_d_137_242" x="-32" y="-32" width="133" height="133" filterUnits="userSpaceOnUse" color-interpolation-filters="sRGB">
<feFlood flood-opacity="0" result="BackgroundImageFix"/>
<feColorMatrix in="SourceAlpha" type="matrix" values="0 0 0 0 0 0 0 0 0 0 0 0 0 0 0 0 0 0 127 0" result="hardAlpha"/>
<feOffset dx="18" dy="18"/>
<feGaussianBlur stdDeviation="25"/>
<feColorMatrix type="matrix" values="0 0 0 0 0 0 0 0 0 0 0 0 0 0 0 0 0 0 0.05 0"/>
<feBlend mode="normal" in2="BackgroundImageFix" result="effect1_dropShadow_137_242"/>
<feBlend mode="normal" in="SourceGraphic" in2="effect1_dropShadow_137_242" result="shape"/>
</filter>
<clipPath id="clip0_137_242">
<rect width="33" height="33" fill="white"/>
</clipPath>
</defs>
</svg>
