<svg width="33" height="33" viewBox="0 0 33 33" fill="none" xmlns="http://www.w3.org/2000/svg">
<g clip-path="url(#clip0_137_240)">
<g filter="url(#filter0_d_137_240)">
<rect width="33" height="33" rx="16.5" fill="#121212"/>
<rect x="0.75" y="0.75" width="31.5" height="31.5" rx="15.75" stroke="#00A99D" stroke-width="1.5"/>
</g>
<path d="M16.5 9C12.3645 9 9 12.3645 9 16.5C9 20.6355 12.3645 24 16.5 24C20.6355 24 24 20.6355 24 16.5C24 12.3645 20.6355 9 16.5 9ZM16.5 22.5C13.1918 22.5 10.5 19.8082 10.5 16.5C10.5 13.1918 13.1918 10.5 16.5 10.5C19.8082 10.5 22.5 13.1918 22.5 16.5C22.5 19.8082 19.8082 22.5 16.5 22.5Z" fill="white"/>
<path d="M17.25 12.75H15.75V16.8105L18.2198 19.2802L19.2802 18.2198L17.25 16.1895V12.75Z" fill="white"/>
</g>
<defs>
<filter id="filter0_d_137_240" x="-32" y="-32" width="133" height="133" filterUnits="userSpaceOnUse" color-interpolation-filters="sRGB">
<feFlood flood-opacity="0" result="BackgroundImageFix"/>
<feColorMatrix in="SourceAlpha" type="matrix" values="0 0 0 0 0 0 0 0 0 0 0 0 0 0 0 0 0 0 127 0" result="hardAlpha"/>
<feOffset dx="18" dy="18"/>
<feGaussianBlur stdDeviation="25"/>
<feColorMatrix type="matrix" values="0 0 0 0 0 0 0 0 0 0 0 0 0 0 0 0 0 0 0.05 0"/>
<feBlend mode="normal" in2="BackgroundImageFix" result="effect1_dropShadow_137_240"/>
<feBlend mode="normal" in="SourceGraphic" in2="effect1_dropShadow_137_240" result="shape"/>
</filter>
<clipPath id="clip0_137_240">
<rect width="33" height="33" fill="white"/>
</clipPath>
</defs>
</svg>
