<svg width="33" height="33" viewBox="0 0 33 33" fill="none" xmlns="http://www.w3.org/2000/svg">
<g clip-path="url(#clip0_137_243)">
<g filter="url(#filter0_d_137_243)">
<rect width="33" height="33" rx="16.5" fill="#121212"/>
<rect x="0.75" y="0.75" width="31.5" height="31.5" rx="15.75" stroke="#00A99D" stroke-width="1.5"/>
</g>
<path d="M17.4286 9L11 11.1429V17.5714C11 21.1222 13.8778 24 17.4286 24C20.9794 24 23.8571 21.1222 23.8571 17.5714V11.1429L17.4286 9ZM22.6518 17.5714C22.6518 20.4559 20.3131 22.7946 17.4286 22.7946C14.5441 22.7946 12.2054 20.4559 12.2054 17.5714V12.0469L17.4286 10.2054L22.6518 12.0469V17.5714Z" fill="white"/>
<path d="M15.1919 15.8822C15.1361 15.8261 15.0697 15.7816 14.9966 15.7512C14.9235 15.7208 14.8451 15.7052 14.7659 15.7052C14.6867 15.7052 14.6083 15.7208 14.5352 15.7512C14.4621 15.7816 14.3957 15.8261 14.3398 15.8822C14.2837 15.9381 14.2392 16.0045 14.2088 16.0776C14.1784 16.1507 14.1628 16.2291 14.1628 16.3083C14.1628 16.3875 14.1784 16.4659 14.2088 16.539C14.2392 16.6121 14.2837 16.6785 14.3398 16.7343L16.5061 18.9006L16.5413 18.9358C16.5941 18.9887 16.6569 19.0307 16.726 19.0594C16.795 19.088 16.8691 19.1028 16.9439 19.1028C17.0187 19.1028 17.0928 19.088 17.1618 19.0594C17.2309 19.0307 17.2937 18.9887 17.3465 18.9358L21.0882 15.1942C21.1411 15.1413 21.1831 15.0786 21.2117 15.0095C21.2404 14.9404 21.2551 14.8663 21.2551 14.7915C21.2551 14.7167 21.2404 14.6427 21.2117 14.5736C21.1831 14.5045 21.1411 14.4418 21.0882 14.3889L21.0413 14.342C20.9884 14.2891 20.9257 14.2471 20.8566 14.2185C20.7875 14.1898 20.7135 14.175 20.6387 14.175C20.5639 14.175 20.4898 14.1898 20.4207 14.2185C20.3516 14.2471 20.2889 14.2891 20.236 14.342L16.9431 17.6333L15.1919 15.8822Z" fill="white"/>
</g>
<defs>
<filter id="filter0_d_137_243" x="-32" y="-32" width="133" height="133" filterUnits="userSpaceOnUse" color-interpolation-filters="sRGB">
<feFlood flood-opacity="0" result="BackgroundImageFix"/>
<feColorMatrix in="SourceAlpha" type="matrix" values="0 0 0 0 0 0 0 0 0 0 0 0 0 0 0 0 0 0 127 0" result="hardAlpha"/>
<feOffset dx="18" dy="18"/>
<feGaussianBlur stdDeviation="25"/>
<feColorMatrix type="matrix" values="0 0 0 0 0 0 0 0 0 0 0 0 0 0 0 0 0 0 0.05 0"/>
<feBlend mode="normal" in2="BackgroundImageFix" result="effect1_dropShadow_137_243"/>
<feBlend mode="normal" in="SourceGraphic" in2="effect1_dropShadow_137_243" result="shape"/>
</filter>
<clipPath id="clip0_137_243">
<rect width="33" height="33" fill="white"/>
</clipPath>
</defs>
</svg>
