<svg width="40" height="40" viewBox="0 0 40 40" fill="none" xmlns="http://www.w3.org/2000/svg">
<path d="M15.26 27V25.82C16.2067 25.0733 17.1 24.32 17.94 23.56C18.7933 22.7867 19.5467 22.0267 20.2 21.28C20.8667 20.5333 21.3867 19.8 21.76 19.08C22.1467 18.36 22.34 17.6667 22.34 17C22.34 16.5067 22.2533 16.0467 22.08 15.62C21.92 15.1933 21.6533 14.8533 21.28 14.6C20.9067 14.3333 20.4 14.2 19.76 14.2C19.1467 14.2 18.6333 14.34 18.22 14.62C17.8067 14.8867 17.4933 15.2467 17.28 15.7C17.08 16.1533 16.98 16.64 16.98 17.16H15.36C15.36 16.24 15.5533 15.4533 15.94 14.8C16.3267 14.1333 16.8533 13.6267 17.52 13.28C18.1867 12.9333 18.94 12.76 19.78 12.76C21.02 12.76 22.0333 13.1133 22.82 13.82C23.62 14.5133 24.02 15.5533 24.02 16.94C24.02 17.7667 23.8133 18.5867 23.4 19.4C22.9867 20.2 22.46 20.98 21.82 21.74C21.18 22.4867 20.4933 23.1867 19.76 23.84C19.04 24.4933 18.3667 25.08 17.74 25.6H24.5V27H15.26Z" fill="#10474D"/>
<rect x="1" y="1" width="38" height="38" rx="19" stroke="#10474D" stroke-width="2"/>
</svg>
