<svg width="40" height="40" viewBox="0 0 40 40" fill="none" xmlns="http://www.w3.org/2000/svg">
<path d="M19.84 27.24C18.9467 27.24 18.14 27.08 17.42 26.76C16.7 26.4267 16.12 25.9333 15.68 25.28C15.2533 24.6267 15.0267 23.8133 15 22.84H16.7C16.7133 23.64 16.9933 24.3333 17.54 24.92C18.0867 25.4933 18.8533 25.78 19.84 25.78C20.8267 25.78 21.5667 25.5067 22.06 24.96C22.5667 24.4133 22.82 23.7533 22.82 22.98C22.82 22.3267 22.66 21.7933 22.34 21.38C22.0333 20.9667 21.6133 20.66 21.08 20.46C20.56 20.26 19.9867 20.16 19.36 20.16H18.32V18.74H19.36C20.2667 18.74 20.9733 18.5333 21.48 18.12C22 17.7067 22.26 17.1267 22.26 16.38C22.26 15.7533 22.0533 15.24 21.64 14.84C21.24 14.4267 20.64 14.22 19.84 14.22C19.0667 14.22 18.4467 14.4533 17.98 14.92C17.5133 15.3733 17.2533 15.9467 17.2 16.64H15.5C15.54 15.88 15.74 15.2067 16.1 14.62C16.4733 14.0333 16.98 13.58 17.62 13.26C18.26 12.9267 19 12.76 19.84 12.76C20.7467 12.76 21.5 12.92 22.1 13.24C22.7133 13.56 23.1733 13.9867 23.48 14.52C23.8 15.0533 23.96 15.64 23.96 16.28C23.96 16.9867 23.7667 17.6333 23.38 18.22C22.9933 18.7933 22.4133 19.18 21.64 19.38C22.4667 19.5533 23.1533 19.9467 23.7 20.56C24.2467 21.1733 24.52 21.98 24.52 22.98C24.52 23.7533 24.34 24.4667 23.98 25.12C23.6333 25.76 23.1133 26.2733 22.42 26.66C21.7267 27.0467 20.8667 27.24 19.84 27.24Z" fill="#10474D"/>
<rect x="1" y="1" width="38" height="38" rx="19" stroke="#10474D" stroke-width="2"/>
</svg>
