<svg width="148" height="35" viewBox="0 0 148 35" fill="none" xmlns="http://www.w3.org/2000/svg">
<g clip-path="url(#clip0_208_139)">
<path d="M3.05043 34.2721V19.6048H21.9727V34.2721H25.0231V1.93628H21.9727V16.7004H3.05043V1.93628H0V34.2721H3.05043Z" fill="#267780"/>
<path d="M41.7585 34.7561C46.1434 34.7561 49.7181 32.336 51.4816 28.8021V34.2721H54.2938V22.4609C54.2938 15.5871 48.9554 10.2623 42.1397 10.2623C35.2286 10.2623 30.0333 15.7807 30.0333 22.4609C30.0333 29.2378 35.0856 34.7561 41.7585 34.7561ZM42.1397 31.9002C37.0398 31.9002 32.9885 27.6406 32.9885 22.5093C32.9885 17.3782 37.0398 13.1184 42.1397 13.1184C47.2873 13.1184 51.3386 17.3782 51.3386 22.5093C51.3386 27.6406 47.2873 31.9002 42.1397 31.9002Z" fill="#267780"/>
<path d="M62.4817 34.2721V19.9437C62.4817 15.9259 64.6741 13.3603 68.2013 13.3603C69.536 13.3603 70.8228 13.6992 71.9667 14.3769V11.3272C70.775 10.7464 69.3928 10.4559 67.963 10.4559C62.6248 10.4559 59.5267 14.3285 59.5267 19.7985V34.2721H62.4817Z" fill="#267780"/>
<path d="M83.2588 34.7561C87.6438 34.7561 91.2185 32.336 92.9819 28.8021V34.2721H95.7942V22.4609C95.7942 15.5871 90.4558 10.2623 83.64 10.2623C76.7289 10.2623 71.5337 15.7807 71.5337 22.4609C71.5337 29.2378 76.586 34.7561 83.2588 34.7561ZM83.64 31.9002C78.5402 31.9002 74.4886 27.6406 74.4886 22.5093C74.4886 17.3782 78.5402 13.1184 83.64 13.1184C88.7877 13.1184 92.839 17.3782 92.839 22.5093C92.839 27.6406 88.7877 31.9002 83.64 31.9002Z" fill="#267780"/>
<path d="M104.125 34.2721V23.8162H107.557C113.324 23.8162 117.232 26.9143 117.232 31.9971V34.2721H120.188V32.2391C120.188 27.2048 117.28 23.2353 112.562 22.4608C117.232 21.6863 120.188 17.6685 120.188 12.6342V10.7948H117.232V12.9731C117.232 18.1526 113.324 21.057 107.509 21.057H104.125V0H101.17V34.2721H104.125Z" fill="#267780"/>
<path d="M135.465 34.7561C139.85 34.7561 143.424 32.336 145.188 28.8021V34.2721H148V22.4609C148 15.5871 142.662 10.2623 135.846 10.2623C128.935 10.2623 123.74 15.7807 123.74 22.4609C123.74 29.2378 128.792 34.7561 135.465 34.7561ZM135.846 31.9002C130.746 31.9002 126.695 27.6406 126.695 22.5093C126.695 17.3782 130.746 13.1184 135.846 13.1184C140.994 13.1184 145.045 17.3782 145.045 22.5093C145.045 27.6406 140.994 31.9002 135.846 31.9002Z" fill="#267780"/>
<path d="M18.7608 17.2399C18.7401 17.1484 18.6974 17.0637 18.6364 16.9931C18.5755 16.9226 18.4983 16.8685 18.4117 16.8357L14.3902 15.3041L15.4095 10.1065C15.433 9.98606 15.4178 9.86122 15.3663 9.7502C15.3148 9.63918 15.2296 9.54782 15.1233 9.48957C15.0159 9.43154 14.8926 9.41122 14.7726 9.43173C14.6527 9.45224 14.5427 9.51247 14.46 9.60301L6.64027 18.1121C6.57618 18.1796 6.52983 18.2623 6.50544 18.3528C6.48105 18.4432 6.47939 18.5384 6.50063 18.6297C6.52248 18.7206 6.56563 18.8048 6.62641 18.8752C6.68718 18.9456 6.7638 19 6.84971 19.0339L10.8713 20.5655L9.85192 25.7631C9.8285 25.8835 9.84364 26.0084 9.89515 26.1194C9.94668 26.2304 10.0318 26.3217 10.1382 26.38C10.2184 26.4211 10.3067 26.4429 10.3965 26.4438C10.4724 26.4441 10.5475 26.4286 10.6172 26.3981C10.6869 26.3676 10.7496 26.3228 10.8015 26.2665L18.6212 17.7575C18.6853 17.69 18.7316 17.6072 18.756 17.5168C18.7804 17.4264 18.7821 17.3311 18.7608 17.2399Z" fill="#267780"/>
</g>
<defs>
<clipPath id="clip0_208_139">
<rect width="148" height="35" fill="white"/>
</clipPath>
</defs>
</svg>
